<svg width="111" height="36" viewBox="0 0 111 36" fill="none" xmlns="http://www.w3.org/2000/svg">
<path d="M6.58715 21.2748C6.58856 21.2667 6.58805 21.2584 6.58567 21.2506C6.58328 21.2427 6.57909 21.2356 6.57343 21.2296C6.56777 21.2237 6.5608 21.2192 6.55307 21.2164C6.54534 21.2137 6.53707 21.2128 6.52893 21.2138C6.2776 21.2468 5.81788 21.2948 5.14978 21.3576C4.63375 21.4065 4.17022 21.4303 3.75918 21.429C2.77898 21.4271 2.29222 21.4538 1.85509 21.3767C1.83878 21.3738 1.824 21.3653 1.81336 21.3528C1.80272 21.3402 1.79688 21.3244 1.79688 21.3081C1.80006 20.8167 1.83473 20.2798 1.90091 19.6976C2.33931 15.8386 3.73086 12.3881 6.07558 9.34619C10.7504 3.28048 18.5261 0.205237 26.1167 1.63952C26.1428 1.64435 26.1668 1.65705 26.1855 1.67593C26.2043 1.69482 26.2169 1.71899 26.2216 1.74524C26.3133 2.27286 26.3874 2.80206 26.444 3.33286C26.528 4.12714 26.4937 4.83667 26.4984 5.72143C26.5013 6.37857 26.4202 7.17 26.3763 7.59571C25.9977 11.2808 24.6942 14.6398 22.466 17.6729C18.7704 22.7033 13.0152 25.75 6.75513 25.99C6.64378 25.9944 6.56265 25.9938 6.51175 25.9881C6.48374 25.9849 6.45774 25.9721 6.43822 25.9519C6.41871 25.9317 6.40691 25.9055 6.40485 25.8776C6.29859 24.4167 6.34504 22.9649 6.5442 21.5224C6.5442 21.5186 6.55852 21.436 6.58715 21.2748ZM11.7869 11.2757C9.10493 13.9567 7.33733 17.3348 6.66541 21.0748C6.66032 21.1021 6.6651 21.123 6.67973 21.1376C6.69437 21.1522 6.71536 21.157 6.74272 21.1519C10.4889 20.4738 13.8713 18.7043 16.5533 16.0224C19.2362 13.3414 21.0028 9.96333 21.6748 6.22333C21.6798 6.1954 21.6754 6.17444 21.6614 6.16048C21.6468 6.14587 21.6258 6.14111 21.5984 6.14619C17.8513 6.82428 14.4698 8.59381 11.7869 11.2757Z" fill="#011428" fill-opacity="0.5"/>
<path d="M101.152 12.5981C101.169 12.5981 101.185 12.6049 101.197 12.6168C101.209 12.6288 101.216 12.645 101.216 12.6619V15.1067C101.216 15.1183 101.211 15.1295 101.203 15.1377C101.195 15.1459 101.184 15.1505 101.172 15.1505H97.7761C97.7589 15.1505 97.7424 15.1573 97.7302 15.1695C97.718 15.1816 97.7112 15.1981 97.7112 15.2153V25.84C97.7112 25.8542 97.7055 25.8677 97.6953 25.8778C97.6851 25.8878 97.6712 25.8934 97.6568 25.8934H94.6647C94.6507 25.8934 94.6374 25.8879 94.6275 25.878C94.6177 25.8682 94.6122 25.8549 94.6122 25.841V15.2572C94.6122 15.2491 94.6106 15.241 94.6074 15.2335C94.6043 15.226 94.5998 15.2192 94.594 15.2134C94.5882 15.2077 94.5814 15.2031 94.5739 15.2C94.5663 15.1969 94.5583 15.1953 94.5501 15.1953H92.9629C92.952 15.1953 92.9416 15.1909 92.9339 15.183C92.9262 15.1751 92.9219 15.1645 92.9219 15.1534V12.6277C92.9219 12.6188 92.9254 12.6103 92.9317 12.6041C92.9379 12.5978 92.9464 12.5943 92.9553 12.5943H94.5511C94.5598 12.5943 94.5685 12.5926 94.5765 12.5891C94.5845 12.5857 94.5917 12.5806 94.5977 12.5743C94.6037 12.568 94.6083 12.5605 94.6113 12.5523C94.6143 12.5441 94.6156 12.5354 94.615 12.5267C94.5959 12.2188 94.5959 11.8692 94.615 11.4781C94.7887 7.87813 98.1121 6.75814 101.148 6.83147C101.166 6.83196 101.182 6.83931 101.195 6.85193C101.207 6.86456 101.214 6.88148 101.214 6.89909V9.42861C101.214 9.43857 101.212 9.44843 101.208 9.45758C101.204 9.46674 101.198 9.475 101.191 9.48186C101.184 9.48872 101.175 9.49404 101.166 9.49749C101.157 9.50095 101.147 9.50246 101.137 9.50194C99.6286 9.42194 97.8076 9.80385 97.6721 11.6562C97.6504 11.9553 97.6409 12.2505 97.6434 12.5419C97.6434 12.5568 97.6495 12.5711 97.6602 12.5817C97.6709 12.5922 97.6855 12.5981 97.7007 12.5981H101.152Z" fill="#011428" fill-opacity="0.5"/>
<path d="M109.65 22.8775C109.656 22.8764 109.663 22.8767 109.669 22.8784C109.676 22.8801 109.681 22.8831 109.686 22.8873C109.691 22.8914 109.695 22.8966 109.698 22.9025C109.701 22.9084 109.702 22.9148 109.703 22.9213V25.3632C109.702 25.3793 109.698 25.395 109.69 25.4087C109.681 25.4223 109.669 25.4333 109.655 25.4403C108.733 25.8988 107.703 26.108 106.565 26.068C105.195 26.0203 103.965 25.5689 103.414 24.2661C103.155 23.6553 103.026 22.9477 103.027 22.1432C103.034 17.7877 103.032 13.8213 103.023 10.2442C103.023 10.241 103.028 10.0175 103.037 9.57368C103.037 9.5663 103.039 9.55905 103.042 9.55241C103.045 9.54577 103.05 9.5399 103.056 9.5352C103.061 9.53051 103.068 9.52709 103.075 9.52518C103.082 9.52328 103.09 9.52293 103.097 9.52416C103.882 9.65813 104.621 9.84416 105.312 10.0823C105.598 10.1807 105.848 10.2908 106.061 10.4127C106.079 10.4228 106.094 10.4375 106.105 10.4552C106.115 10.473 106.121 10.4931 106.121 10.5137V12.5194C106.121 12.5409 106.129 12.5615 106.144 12.5766C106.16 12.5918 106.18 12.6003 106.202 12.6003H108.135C108.15 12.6003 108.165 12.6063 108.175 12.6168C108.186 12.6273 108.192 12.6416 108.192 12.6565V15.1127C108.192 15.1228 108.188 15.1325 108.18 15.1397C108.173 15.1468 108.164 15.1508 108.153 15.1508H106.173C106.166 15.1508 106.159 15.1522 106.153 15.1549C106.146 15.1576 106.14 15.1615 106.135 15.1664C106.13 15.1714 106.126 15.1773 106.124 15.1837C106.121 15.1902 106.12 15.1972 106.12 15.2042C106.124 16.6562 106.124 18.687 106.119 21.2965C106.119 21.5067 106.127 21.6629 106.144 21.7651C106.179 21.968 106.191 22.2003 106.251 22.3861C106.695 23.7423 108.475 23.3708 109.506 22.907C109.546 22.8889 109.591 22.888 109.65 22.8775Z" fill="#011428" fill-opacity="0.5"/>
<path d="M38.8766 23.62C38.8798 23.6227 38.8824 23.6261 38.8842 23.6298C38.8861 23.6335 38.8872 23.6376 38.8875 23.6418C38.8877 23.6459 38.8872 23.6501 38.8858 23.6541C38.8844 23.658 38.8823 23.6616 38.8795 23.6648C37.7685 24.9343 36.5182 25.74 34.827 26.0543C33.3438 26.3305 31.6716 26.1914 30.3125 25.58C27.978 24.5295 26.6867 22.4 26.4738 19.8648C26.1646 16.1876 28.3903 12.7638 32.1937 12.2686C32.4756 12.2317 32.8612 12.2203 33.3505 12.2343C37.7733 12.3571 39.7728 16.3028 39.454 20.239C39.4524 20.2583 39.4436 20.2762 39.4295 20.2893C39.4153 20.3024 39.3968 20.3096 39.3777 20.3095H29.674C29.663 20.3094 29.6521 20.3121 29.6423 20.3173C29.6326 20.3224 29.6243 20.3299 29.6181 20.3391C29.612 20.3482 29.6082 20.3587 29.6071 20.3697C29.6061 20.3807 29.6077 20.3917 29.612 20.4019C29.7198 20.6543 29.738 20.9371 29.8544 21.2276C30.2731 22.2625 30.9526 22.9641 31.8931 23.3324C33.6836 24.0333 35.7203 23.4771 37.0117 22.019C37.017 22.013 37.0235 22.008 37.0307 22.0044C37.038 22.0009 37.0459 21.9988 37.0539 21.9984C37.0619 21.9979 37.0699 21.9991 37.0774 22.0019C37.0849 22.0046 37.0918 22.0088 37.0976 22.0143L38.8766 23.62ZM29.5519 18.2914H36.2434C36.2555 18.2915 36.2674 18.2889 36.2784 18.2838C36.2894 18.2787 36.2991 18.2712 36.3069 18.262C36.3146 18.2527 36.3202 18.2418 36.3233 18.2301C36.3263 18.2184 36.3267 18.2062 36.3245 18.1943C36.167 17.3267 35.9551 16.5952 35.4378 15.9543C34.7239 15.0698 33.7625 14.6886 32.5535 14.8105C31.1209 14.9552 30.1121 16.0924 29.7036 17.4314C29.6438 17.6276 29.5757 17.8921 29.4994 18.2248C29.4975 18.2327 29.4975 18.2409 29.4992 18.2489C29.501 18.2568 29.5045 18.2643 29.5096 18.2707C29.5146 18.2771 29.521 18.2823 29.5283 18.2859C29.5357 18.2894 29.5437 18.2913 29.5519 18.2914Z" fill="#011428" fill-opacity="0.5"/>
<path d="M52.575 23.7401C51.2885 25.1659 49.833 26.0106 47.9117 26.2059C43.5786 26.6459 39.9937 23.4192 40.1703 18.9792C40.2992 15.7287 42.5936 12.9716 45.8034 12.3982C46.9633 12.1906 48.1118 12.242 49.2488 12.5525C50.4731 12.8871 51.5407 13.5532 52.4519 14.5506C52.4626 14.5622 52.4684 14.5774 52.4682 14.5932C52.4681 14.6089 52.4619 14.624 52.4509 14.6354L50.5764 16.6078C50.5713 16.6132 50.5652 16.6175 50.5584 16.6206C50.5516 16.6236 50.5442 16.6253 50.5368 16.6254C50.5293 16.6256 50.5219 16.6243 50.5149 16.6216C50.508 16.6189 50.5016 16.6148 50.4963 16.6097C49.7165 15.8487 48.8728 15.2011 47.7962 15.0249C45.3834 14.6306 43.5958 16.2668 43.2646 18.5716C43.1475 19.3855 43.2296 20.1732 43.5108 20.9344C44.0501 22.3935 45.2822 23.4316 46.8446 23.5363C47.7008 23.5935 48.4433 23.4782 49.1973 23.0706C49.7203 22.7874 50.2115 22.4001 50.6709 21.9087C50.675 21.9042 50.6799 21.9006 50.6854 21.898C50.6909 21.8955 50.6969 21.8941 50.703 21.8939C50.7091 21.8937 50.7151 21.8948 50.7207 21.897C50.7264 21.8992 50.7315 21.9026 50.7358 21.9068L52.5712 23.643C52.5842 23.6556 52.5919 23.6727 52.5926 23.6908C52.5933 23.7089 52.587 23.7266 52.575 23.7401Z" fill="#011428" fill-opacity="0.5"/>
<path d="M66.8432 18.5835C67.0184 20.4333 66.4341 22.2783 65.2189 23.7126C64.0037 25.1469 62.257 26.0531 60.3632 26.2317C59.4255 26.3201 58.4798 26.2273 57.5803 25.9585C56.6807 25.6897 55.8449 25.2502 55.1204 24.6651C54.396 24.08 53.7972 23.3608 53.3582 22.5484C52.9192 21.7361 52.6485 20.8465 52.5618 19.9306C52.3865 18.0808 52.9708 16.2358 54.186 14.8015C55.4013 13.3672 57.1479 12.4611 59.0418 12.2824C59.9795 12.194 60.9251 12.2868 61.8247 12.5556C62.7242 12.8244 63.5601 13.2639 64.2845 13.849C65.0089 14.4341 65.6078 15.1534 66.0468 15.9657C66.4858 16.7781 66.7564 17.6676 66.8432 18.5835ZM59.4221 14.9423C58.8903 14.9766 58.3709 15.1221 57.8936 15.3704C57.4163 15.6188 56.9905 15.9651 56.6403 16.3897C56.2902 16.8143 56.0227 17.3088 55.8531 17.8449C55.6835 18.3811 55.6151 18.9485 55.6517 19.5146C55.6884 20.0807 55.8295 20.6345 56.0669 21.1444C56.3043 21.6543 56.6334 22.1103 57.0354 22.4864C57.4374 22.8624 57.9045 23.1512 58.4098 23.3361C58.9152 23.5211 59.4491 23.5986 59.9809 23.5643C60.5127 23.5299 61.0321 23.3845 61.5094 23.1361C61.9867 22.8877 62.4126 22.5414 62.7627 22.1168C63.1128 21.6922 63.3803 21.1977 63.5499 20.6616C63.7196 20.1254 63.788 19.5581 63.7513 18.9919C63.7146 18.4258 63.5735 17.872 63.3361 17.3621C63.0987 16.8522 62.7696 16.3962 62.3676 16.0201C61.9656 15.6441 61.4986 15.3553 60.9932 15.1704C60.4878 14.9855 59.954 14.9079 59.4221 14.9423Z" fill="#011428" fill-opacity="0.5"/>
<path d="M68.5403 22.0747C69.9013 23.0557 71.4599 23.7166 73.1263 23.6823C73.9862 23.6642 74.9664 23.2452 74.9893 22.2661C75.0084 21.4623 74.2268 21.1185 73.5816 20.889C73.308 20.7919 72.6335 20.5903 71.5582 20.2842C70.9473 20.1103 70.3317 19.8544 69.7114 19.5166C68.5546 18.8868 67.9342 17.943 67.8502 16.6852C67.6698 13.9976 69.7304 12.4795 72.2291 12.2842C72.6803 12.2487 73.203 12.2776 73.7973 12.3709C75.1277 12.5804 76.3764 13.0455 77.5434 13.7661C77.5583 13.7755 77.569 13.7901 77.5732 13.807C77.5775 13.8239 77.575 13.8417 77.5663 13.8566L76.3714 15.9214C76.3661 15.9306 76.3589 15.9387 76.3504 15.9451C76.3419 15.9515 76.3321 15.9561 76.3218 15.9586C76.3114 15.9611 76.3006 15.9614 76.2901 15.9596C76.2796 15.9578 76.2696 15.9539 76.2606 15.9481C75.3342 15.3576 74.3362 14.9668 73.2666 14.7757C72.3446 14.6109 70.9359 14.7176 70.7374 15.8423C70.6636 16.262 70.7946 16.5995 71.1306 16.8547C71.6956 17.2833 72.2349 17.4471 73.1044 17.7385C73.364 17.8255 73.6796 17.9239 74.0511 18.0338C74.933 18.2941 75.702 18.6468 76.358 19.0919C77.8192 20.0833 78.1724 21.6985 77.6493 23.3442C77.1339 24.9652 75.5095 25.9033 73.8727 26.0538C73.4947 26.0881 73.1712 26.1122 72.902 26.1261C72.6755 26.1376 72.4792 26.1328 72.3131 26.1119C72.0697 26.0814 71.8006 26.09 71.5295 26.0519C69.9057 25.8214 68.4407 25.2084 67.1344 24.2128C67.1255 24.2061 67.1195 24.1961 67.1177 24.185C67.116 24.1738 67.1185 24.1623 67.1249 24.1528L68.4964 22.0833C68.4986 22.0797 68.5015 22.0767 68.505 22.0743C68.5084 22.0719 68.5123 22.0703 68.5164 22.0695C68.5206 22.0687 68.5248 22.0687 68.5289 22.0696C68.533 22.0705 68.5369 22.0723 68.5403 22.0747Z" fill="#011428" fill-opacity="0.5"/>
<path d="M92.718 18.6218C92.8835 20.4727 92.2898 22.3148 91.0674 23.7429C89.8451 25.171 88.0942 26.0681 86.1999 26.2368C85.262 26.3203 84.3171 26.2225 83.4192 25.9489C82.5213 25.6754 81.688 25.2315 80.9668 24.6425C80.2456 24.0535 79.6507 23.331 79.216 22.5162C78.7814 21.7015 78.5155 20.8104 78.4335 19.8939C78.2679 18.043 78.8617 16.2009 80.084 14.7728C81.3064 13.3447 83.0573 12.4476 84.9515 12.2789C85.8895 12.1954 86.8344 12.2932 87.7323 12.5668C88.6302 12.8403 89.4635 13.2843 90.1847 13.8732C90.9059 14.4622 91.5008 15.1847 91.9354 15.9995C92.3701 16.8142 92.636 17.7053 92.718 18.6218ZM85.2934 14.9411C84.7616 14.9755 84.2422 15.121 83.7649 15.3694C83.2876 15.6178 82.8618 15.9642 82.5117 16.3889C82.1615 16.8135 81.894 17.3081 81.7244 17.8444C81.5548 18.3807 81.4864 18.9482 81.5231 19.5144C81.5972 20.658 82.095 21.7272 82.9068 22.4869C83.7187 23.2465 84.7782 23.6343 85.8523 23.565C86.3841 23.5307 86.9035 23.3852 87.3808 23.1368C87.8581 22.8884 88.284 22.542 88.6341 22.1173C88.9842 21.6926 89.2517 21.1981 89.4213 20.6618C89.5909 20.1255 89.6593 19.558 89.6226 18.9918C89.5485 17.8482 89.0508 16.7789 88.2389 16.0193C87.427 15.2597 86.3675 14.8718 85.2934 14.9411Z" fill="#011428" fill-opacity="0.5"/>
<path d="M2.09456 25.7358C2.09296 25.7262 2.09373 25.7164 2.09681 25.7071C2.09989 25.6979 2.10519 25.6895 2.11224 25.6827C2.11929 25.676 2.12788 25.671 2.13727 25.6683C2.14667 25.6657 2.15658 25.6653 2.16615 25.6673C2.90551 25.8247 3.70977 25.9279 4.57894 25.9768C4.99189 26.0003 5.21141 26.0146 5.23749 26.0197C5.308 26.0317 5.37952 26.0378 5.45129 26.0378L6.33604 26.0368C6.35428 26.0367 6.3719 26.0435 6.38549 26.0558C6.39907 26.0682 6.40764 26.0851 6.40953 26.1035C6.61951 28.1314 7.13553 30.0501 7.95762 31.8597C7.9612 31.867 7.96221 31.8754 7.96049 31.8835C7.95876 31.8916 7.9544 31.8989 7.94807 31.9044C7.15844 32.587 6.2775 33.1397 5.30526 33.5625C5.29778 33.5657 5.28946 33.5662 5.28177 33.5639C5.27408 33.5617 5.26753 33.5568 5.26326 33.5501C4.35719 32.1978 3.61529 30.7578 3.03754 29.2301C2.60932 28.0974 2.29499 26.9327 2.09456 25.7358Z" fill="#011428" fill-opacity="0.5"/>
</svg>
