<svg width="113" height="26" viewBox="0 0 113 26" fill="none" xmlns="http://www.w3.org/2000/svg">
<g clip-path="url(#clip0_353_4176)">
<path d="M40.4766 8.79109C40.5009 10.1032 40.912 11.3911 41.8772 12.289C43.6676 13.9578 46.0761 13.1204 47.285 11.2671C47.2959 11.2499 47.3103 11.2353 47.3274 11.2241C47.3445 11.2129 47.3637 11.2055 47.3839 11.2024C47.4041 11.1992 47.4248 11.2004 47.4445 11.2058C47.4642 11.2113 47.4825 11.2208 47.4981 11.2339L50.3603 13.5436C50.3846 13.5632 50.4008 13.591 50.4058 13.6216C50.4109 13.6523 50.4044 13.6837 50.3877 13.7099C48.8287 16.2283 46.3837 17.5736 43.424 17.2925C38.9846 16.8662 36.3324 13.1446 36.2594 8.86062C36.1863 4.57969 38.7044 0.770388 43.1287 0.192946C46.0761 -0.191007 48.5669 1.06969 50.2111 3.53364C50.2285 3.5592 50.236 3.59017 50.232 3.62077C50.2281 3.65137 50.2131 3.67951 50.1898 3.69992L47.4098 6.10643C47.3947 6.12045 47.3767 6.13104 47.3571 6.13749C47.3375 6.14394 47.3167 6.14609 47.2961 6.14379C47.2756 6.14149 47.2558 6.1348 47.2381 6.12417C47.2204 6.11355 47.2052 6.09925 47.1936 6.08225C45.9239 4.27132 43.4849 3.5155 41.7554 5.24481C40.8237 6.17597 40.4552 7.47597 40.4766 8.79109Z" fill="#011428" fill-opacity="0.5"/>
<path d="M33.4347 0.435547H29.5128C29.454 0.435547 29.4062 0.482922 29.4062 0.541361V16.873C29.4062 16.9314 29.454 16.9788 29.5128 16.9788H33.4347C33.4935 16.9788 33.5412 16.9314 33.5412 16.873V0.541361C33.5412 0.482922 33.4935 0.435547 33.4347 0.435547Z" fill="#011428" fill-opacity="0.5"/>
<path d="M11.2214 8.68235C11.2235 9.36762 11.2093 9.92591 11.1788 10.3572C11.1773 10.3918 11.1623 10.4244 11.1368 10.4486C11.1114 10.4727 11.0774 10.4866 11.0418 10.4872H4.26992C4.21178 10.4872 4.15601 10.5098 4.1149 10.5501C4.07378 10.5904 4.05069 10.645 4.05069 10.7019V12.8816C4.05069 12.9386 4.07346 12.9932 4.11401 13.0334C4.15455 13.0737 4.20954 13.0963 4.26688 13.0963H11.7848C11.8372 13.0963 11.8876 13.117 11.9247 13.1539C11.9618 13.1907 11.9827 13.2407 11.9827 13.2928V16.7756C11.9827 16.8006 11.9777 16.8254 11.9681 16.8485C11.9584 16.8716 11.9443 16.8926 11.9265 16.9103C11.9087 16.928 11.8875 16.942 11.8643 16.9516C11.841 16.9611 11.816 16.9661 11.7908 16.9661H0.159293C0.141839 16.9661 0.124561 16.9626 0.108474 16.9559C0.092387 16.9492 0.0778154 16.9393 0.0656167 16.9269C0.0534179 16.9145 0.0438379 16.8998 0.03744 16.8837C0.0310421 16.8676 0.0279555 16.8504 0.0283614 16.833C0.0364812 16.5751 0.0324216 13.8692 0.0161821 8.7156C-5.7457e-05 3.56196 -0.0132524 0.856144 -0.0234021 0.59816C-0.023808 0.580835 -0.0207214 0.563605 -0.0143235 0.547482C-0.00792555 0.531359 0.00165444 0.516669 0.0138532 0.504275C0.0260519 0.491881 0.0406235 0.482035 0.0567105 0.475313C0.0727976 0.468592 0.0900757 0.465132 0.107529 0.465137L11.7391 0.392578C11.79 0.392578 11.8387 0.412645 11.8747 0.448364C11.9107 0.484083 11.9309 0.532529 11.9309 0.583044L11.9553 4.06583C11.9553 4.11795 11.9344 4.16794 11.8973 4.20479C11.8602 4.24164 11.8098 4.26235 11.7574 4.26235L4.23947 4.31072C4.18213 4.31072 4.12715 4.33333 4.0866 4.37359C4.04606 4.41384 4.02328 4.46844 4.02328 4.52537L4.03851 6.70514C4.0385 6.73333 4.04417 6.76124 4.05518 6.78729C4.0662 6.81334 4.08235 6.837 4.1027 6.85693C4.12306 6.87687 4.14723 6.89268 4.17383 6.90346C4.20043 6.91425 4.22895 6.91979 4.25774 6.91979L11.0296 6.87746C11.0652 6.87734 11.0995 6.89039 11.1256 6.91398C11.1516 6.93757 11.1674 6.96992 11.1697 7.00444C11.2001 7.43576 11.2174 7.99506 11.2214 8.68235Z" fill="#011428" fill-opacity="0.5"/>
<path d="M14.6328 16.8V0.583221C14.6328 0.544734 14.6479 0.507823 14.6747 0.480608C14.7016 0.453394 14.738 0.438105 14.7759 0.438105C18.5983 0.436089 20.677 0.439112 21.0119 0.447174C24.1238 0.537872 26.4958 1.87717 27.0256 5.13625C27.3392 7.05904 26.9068 9.31438 25.4544 10.6144C23.6001 12.2772 21.3164 12.4162 18.8774 12.2439C18.8544 12.2423 18.8313 12.2453 18.8096 12.2529C18.7878 12.2605 18.7679 12.2725 18.751 12.2881C18.7342 12.3037 18.7207 12.3226 18.7116 12.3436C18.7024 12.3646 18.6977 12.3873 18.6978 12.4102V16.8574C18.6978 16.8895 18.6849 16.9202 18.6621 16.9429C18.6393 16.9656 18.6083 16.9783 18.576 16.9783H14.8125C14.7648 16.9783 14.7191 16.9595 14.6854 16.9261C14.6517 16.8926 14.6328 16.8473 14.6328 16.8ZM18.6978 4.42276V8.5102C18.6978 8.53124 18.7019 8.55208 18.7101 8.57152C18.7182 8.59096 18.73 8.60862 18.745 8.6235C18.76 8.63838 18.7778 8.65018 18.7974 8.65823C18.817 8.66629 18.838 8.67043 18.8591 8.67043H20.8262C21.1153 8.67043 21.4015 8.61859 21.6686 8.51785C21.9357 8.41712 22.1784 8.26948 22.3828 8.08335C22.5873 7.89722 22.7494 7.67626 22.86 7.43307C22.9707 7.18988 23.0276 6.92924 23.0276 6.66601V6.26694C23.0276 5.73534 22.7957 5.22551 22.3828 4.8496C21.97 4.4737 21.41 4.26252 20.8262 4.26252H18.8591C18.838 4.26252 18.817 4.26667 18.7974 4.27472C18.7778 4.28277 18.76 4.29458 18.745 4.30945C18.73 4.32433 18.7182 4.342 18.7101 4.36144C18.7019 4.38088 18.6978 4.40171 18.6978 4.42276Z" fill="#011428" fill-opacity="0.5"/>
<path d="M52.7051 8.71616C52.6828 3.5605 52.6665 0.85469 52.6564 0.598721C52.6556 0.581147 52.6583 0.56359 52.6646 0.547113C52.6708 0.530636 52.6803 0.515582 52.6925 0.502863C52.7048 0.490144 52.7195 0.480023 52.7358 0.473115C52.7521 0.466207 52.7696 0.462656 52.7873 0.462675L64.4219 0.375C64.4728 0.375 64.5216 0.395067 64.5576 0.430786C64.5935 0.466505 64.6138 0.514951 64.6138 0.565465L64.6412 4.04826C64.6412 4.10037 64.6203 4.15036 64.5832 4.18721C64.5461 4.22406 64.4957 4.24477 64.4432 4.24477L56.9254 4.30221C56.8967 4.30221 56.8683 4.30786 56.8419 4.31883C56.8155 4.32981 56.7915 4.34589 56.7714 4.36614C56.7513 4.3864 56.7354 4.41042 56.7247 4.43681C56.7141 4.4632 56.7088 4.49144 56.7092 4.51988L56.7274 6.69965C56.7282 6.75606 56.7517 6.80989 56.7927 6.8495C56.8337 6.8891 56.8891 6.9113 56.9467 6.91128L63.7216 6.85988C63.7577 6.85979 63.7925 6.87327 63.8186 6.8975C63.8447 6.92172 63.8601 6.95482 63.8617 6.98988C63.8921 7.4212 63.9094 7.9795 63.9134 8.66477C63.9155 9.35205 63.9023 9.91136 63.8738 10.3427C63.8723 10.3772 63.8573 10.4099 63.8318 10.434C63.8064 10.4582 63.7724 10.472 63.7368 10.4727L56.9619 10.4817C56.9043 10.4825 56.8493 10.5055 56.8088 10.5457C56.7684 10.5858 56.7457 10.64 56.7457 10.6964V12.8762C56.7457 12.9046 56.7514 12.9328 56.7625 12.959C56.7735 12.9853 56.7897 13.0091 56.8101 13.029C56.8305 13.049 56.8547 13.0647 56.8813 13.0753C56.9079 13.086 56.9363 13.0912 56.9649 13.0908L64.4828 13.0817C64.5353 13.0817 64.5857 13.1024 64.6228 13.1393C64.6599 13.1762 64.6807 13.2261 64.6807 13.2783L64.6868 16.761C64.6868 16.8116 64.6666 16.86 64.6306 16.8957C64.5947 16.9314 64.5459 16.9515 64.495 16.9515L52.8604 16.9666C52.843 16.9666 52.8257 16.9632 52.8096 16.9565C52.7935 16.9497 52.7789 16.9399 52.7667 16.9275C52.7545 16.9151 52.7449 16.9004 52.7385 16.8843C52.7322 16.8682 52.7291 16.8509 52.7295 16.8336C52.7356 16.5776 52.7274 13.8718 52.7051 8.71616Z" fill="#011428" fill-opacity="0.5"/>
<path d="M81.3182 0.544197V16.8819C81.3182 16.8954 81.3155 16.9087 81.3103 16.9212C81.3051 16.9337 81.2975 16.945 81.2878 16.9546C81.2782 16.9641 81.2668 16.9717 81.2543 16.9768C81.2417 16.982 81.2282 16.9847 81.2146 16.9847H77.78C77.7631 16.9846 77.7465 16.9804 77.7317 16.9725C77.7168 16.9646 77.7041 16.9532 77.6947 16.9393L71.5592 8.14164C71.5466 8.12342 71.5284 8.10973 71.5073 8.1026C71.4862 8.09548 71.4634 8.0953 71.4422 8.10209C71.421 8.10888 71.4025 8.12228 71.3896 8.1403C71.3767 8.15831 71.37 8.17999 71.3704 8.2021V16.8758C71.3704 16.9031 71.3595 16.9292 71.3401 16.9485C71.3207 16.9678 71.2944 16.9786 71.2669 16.9786H67.4395C67.412 16.9786 67.3857 16.9678 67.3663 16.9485C67.3468 16.9292 67.3359 16.9031 67.3359 16.8758V0.544197C67.3359 0.516935 67.3468 0.49079 67.3663 0.471513C67.3857 0.452236 67.412 0.441406 67.4395 0.441406H71.0842C71.1011 0.441503 71.1177 0.445685 71.1325 0.453588C71.1474 0.461491 71.1601 0.472876 71.1695 0.486756L77.107 8.9942C77.1197 9.01242 77.1379 9.02611 77.159 9.03323C77.1801 9.04036 77.2029 9.04054 77.2241 9.03375C77.2453 9.02696 77.2638 9.01356 77.2767 8.99554C77.2896 8.97752 77.2963 8.95584 77.2958 8.93373V0.544197C77.2958 0.516935 77.3067 0.49079 77.3262 0.471513C77.3456 0.452236 77.3719 0.441406 77.3994 0.441406H81.2146C81.2421 0.441406 81.2684 0.452236 81.2878 0.471513C81.3073 0.49079 81.3182 0.516935 81.3182 0.544197Z" fill="#011428" fill-opacity="0.5"/>
<path d="M90.1211 0.4375C91.8933 0.4375 94.0196 0.4375 96.5002 0.4375C96.5325 0.437508 96.5635 0.449934 96.5863 0.472045C96.6091 0.494156 96.622 0.524141 96.622 0.555407V4.28006C96.622 4.32977 96.6024 4.37745 96.5676 4.4126C96.5328 4.44775 96.4855 4.4675 96.4363 4.4675H92.3195C92.2784 4.4675 92.2389 4.48374 92.2097 4.51266C92.1806 4.54157 92.1643 4.58079 92.1643 4.62169V16.8568C92.1643 16.8863 92.1529 16.9146 92.1325 16.936C92.1121 16.9573 92.0842 16.9701 92.0546 16.9717C91.9531 16.9757 91.3117 16.9777 90.1303 16.9777C88.9468 16.9797 88.3053 16.9787 88.2059 16.9747C88.1757 16.9739 88.1471 16.9615 88.126 16.94C88.105 16.9185 88.0932 16.8898 88.0932 16.8598L88.081 4.62471C88.081 4.58382 88.0647 4.5446 88.0355 4.51568C88.0064 4.48677 87.9669 4.47052 87.9257 4.47052L83.809 4.47355C83.7598 4.47354 83.7125 4.45379 83.6777 4.41864C83.6428 4.38349 83.6233 4.33582 83.6233 4.2861L83.6172 0.561453C83.6172 0.53019 83.63 0.500206 83.6529 0.478095C83.6757 0.455984 83.7067 0.443557 83.739 0.443546C86.2196 0.441531 88.347 0.439516 90.1211 0.4375Z" fill="#011428" fill-opacity="0.5"/>
<path d="M112.326 16.9763H107.91C107.868 16.9763 107.826 16.9648 107.788 16.9431C107.751 16.9213 107.72 16.8901 107.697 16.8523L104.954 12.133C104.924 12.0816 104.881 12.0388 104.829 12.0091C104.778 11.9794 104.719 11.9637 104.658 11.9637H103.142C103.108 11.9637 103.076 11.9771 103.052 12.0009C103.028 12.0247 103.014 12.057 103.014 12.0907V16.7949C103.014 16.8446 102.994 16.8923 102.959 16.9274C102.924 16.9626 102.876 16.9823 102.825 16.9823H99.1198C99.0673 16.9823 99.017 16.9616 98.9798 16.9248C98.9427 16.8879 98.9219 16.8379 98.9219 16.7858V0.569074C98.9219 0.533794 98.9363 0.499959 98.962 0.475012C98.9877 0.450065 99.0226 0.436051 99.0589 0.436051C99.5664 0.434035 101.843 0.438066 105.889 0.448143C107.938 0.451167 109.692 0.892562 111.028 2.57047C112.243 4.09117 112.313 6.81512 111.64 8.50814C111.214 9.58241 110.4 10.4652 109.198 11.1565C109.17 11.1727 109.15 11.1995 109.141 11.2311C109.133 11.2627 109.137 11.2967 109.153 11.3258L112.383 16.8765C112.389 16.8866 112.392 16.8981 112.392 16.9097C112.392 16.9214 112.389 16.9329 112.383 16.943C112.378 16.9531 112.369 16.9615 112.359 16.9673C112.349 16.9732 112.337 16.9763 112.326 16.9763ZM102.795 6.10163C102.803 7.08117 102.809 7.65659 102.813 7.82791C102.815 7.88698 102.839 7.94311 102.881 7.98433C102.923 8.02555 102.98 8.04862 103.039 8.04861H104.299C104.318 8.04861 104.337 8.04501 104.354 8.03802C104.371 8.03103 104.387 8.02079 104.4 8.00788C104.414 7.99496 104.424 7.97963 104.431 7.96276C104.439 7.94589 104.442 7.9278 104.442 7.90954V6.66093C104.443 6.65107 104.446 6.64158 104.452 6.63389C104.459 6.62621 104.467 6.62076 104.477 6.61836C104.487 6.61597 104.497 6.61676 104.506 6.62063C104.515 6.62449 104.523 6.63121 104.528 6.63977L105.255 7.8914C105.281 7.93549 105.318 7.97207 105.363 7.99752C105.407 8.02298 105.457 8.03642 105.508 8.03652H106.893C106.922 8.0364 106.951 8.02884 106.976 8.0146C107.001 8.00036 107.022 7.97994 107.036 7.95541C107.051 7.93087 107.058 7.90309 107.059 7.87487C107.059 7.84664 107.051 7.81897 107.037 7.79466L106.077 6.12582C106.077 6.1227 106.076 6.11806 106.075 6.11227C106.075 6.10648 106.074 6.09972 106.074 6.09256C106.074 6.08652 106.074 6.08148 106.074 6.07745C106.074 6.07342 106.074 6.06838 106.074 6.06233C106.074 6.05416 106.075 6.04646 106.075 6.04006C106.076 6.03367 106.076 6.02882 106.077 6.02605L107.009 4.34512C107.024 4.32058 107.031 4.29263 107.031 4.26414C107.031 4.23565 107.023 4.20765 107.008 4.18302C106.993 4.15839 106.972 4.13802 106.947 4.124C106.921 4.10998 106.892 4.10282 106.863 4.10326L105.478 4.12442C105.427 4.12535 105.377 4.13949 105.333 4.16546C105.29 4.19144 105.253 4.22835 105.228 4.27256L104.518 5.53628C104.513 5.54484 104.506 5.55156 104.497 5.55543C104.488 5.55929 104.477 5.56009 104.468 5.55769C104.458 5.5553 104.449 5.54985 104.443 5.54216C104.437 5.53448 104.433 5.52499 104.433 5.51512L104.415 4.26954C104.415 4.25102 104.411 4.23268 104.404 4.2156C104.396 4.19853 104.386 4.18306 104.372 4.17011C104.358 4.15715 104.342 4.14697 104.324 4.14017C104.307 4.13336 104.288 4.13006 104.269 4.13047L103.008 4.15163C102.949 4.15242 102.893 4.17624 102.852 4.21803C102.81 4.25981 102.787 4.31626 102.786 4.37535C102.786 4.54466 102.789 5.12008 102.795 6.10163Z" fill="#011428" fill-opacity="0.5"/>
<path d="M1.3525 23.1878C1.35656 22.4823 1.37077 22.053 1.39513 21.8999C1.73311 19.8048 4.4309 19.7866 5.25912 21.652C5.27586 21.6898 5.28267 21.7312 5.27894 21.7724C5.27521 21.8136 5.26105 21.8533 5.23775 21.8879C5.21445 21.9224 5.18276 21.9507 5.14554 21.9703C5.10832 21.9898 5.06677 21.9999 5.02466 21.9996L4.91809 21.9966C4.80306 21.9954 4.6905 21.9633 4.59238 21.9037C4.49426 21.8441 4.41425 21.7592 4.36087 21.658C3.86759 20.7178 2.70444 20.881 2.25379 21.8213C2.21435 21.9036 2.18962 21.9916 2.18072 22.0813C2.16651 22.2163 2.15839 22.5872 2.15636 23.1938C2.1523 23.7985 2.15636 24.1683 2.16854 24.3034C2.17649 24.3929 2.20018 24.4808 2.23857 24.5634C2.68008 25.5096 3.84019 25.685 4.3426 24.7508C4.39704 24.6503 4.47787 24.5663 4.57652 24.5078C4.67516 24.4492 4.78794 24.4183 4.90286 24.4182H5.00944C5.05168 24.4183 5.09329 24.4287 5.13045 24.4486C5.16762 24.4685 5.19915 24.4972 5.22218 24.5321C5.2452 24.567 5.25897 24.607 5.26223 24.6483C5.26549 24.6897 5.25814 24.7312 5.24085 24.7689C4.39436 26.6222 1.69657 26.5738 1.3799 24.4757C1.35757 24.3225 1.34844 23.8932 1.3525 23.1878Z" fill="#011428" fill-opacity="0.5"/>
<path d="M10.9248 23.1906C10.9248 23.2632 10.9237 23.3146 10.9217 23.3448C10.9186 23.4012 10.8938 23.4543 10.8525 23.4931C10.8111 23.5319 10.7563 23.5535 10.6994 23.5534H8.60454C8.57304 23.5534 8.54284 23.5659 8.52057 23.588C8.4983 23.6101 8.48579 23.6401 8.48579 23.6713V25.1739C8.48579 25.2108 8.50054 25.2462 8.52681 25.2722C8.55308 25.2983 8.58871 25.313 8.62585 25.313H11.1866C11.2359 25.313 11.2831 25.3327 11.318 25.3679C11.3528 25.403 11.3724 25.4507 11.3724 25.5004V25.8783C11.3724 25.9288 11.3521 25.9773 11.3162 26.013C11.2802 26.0487 11.2314 26.0688 11.1805 26.0688L7.78546 26.0627C7.75113 26.0629 7.71801 26.0502 7.69263 26.0273C7.66726 26.0043 7.65149 25.9727 7.64844 25.9388C7.64844 25.9307 7.64945 25.0137 7.65148 23.1876C7.65351 21.3616 7.65453 20.4455 7.65453 20.4395C7.65685 20.405 7.6723 20.3727 7.69775 20.3491C7.7232 20.3255 7.75674 20.3124 7.79155 20.3125L11.1866 20.3155C11.2375 20.3155 11.2863 20.3356 11.3223 20.3713C11.3582 20.407 11.3784 20.4555 11.3784 20.506V20.8839C11.3784 20.9336 11.3589 20.9813 11.324 21.0164C11.2892 21.0516 11.242 21.0713 11.1927 21.0713L8.63194 21.0653C8.5948 21.0653 8.55917 21.0799 8.5329 21.106C8.50663 21.1321 8.49188 21.1675 8.49188 21.2044L8.48579 22.7069C8.48579 22.7382 8.4983 22.7682 8.52057 22.7903C8.54284 22.8124 8.57304 22.8248 8.60454 22.8248L10.6994 22.8309C10.7563 22.8308 10.8111 22.8524 10.8525 22.8912C10.8938 22.93 10.9186 22.9831 10.9217 23.0395C10.9237 23.0697 10.9248 23.1201 10.9248 23.1906Z" fill="#011428" fill-opacity="0.5"/>
<path d="M17.8915 25.8795C17.9016 25.897 17.907 25.9169 17.907 25.937C17.907 25.9572 17.9016 25.9771 17.8914 25.9945C17.8812 26.012 17.8666 26.0265 17.8489 26.0366C17.8313 26.0466 17.8113 26.0519 17.791 26.0519H17.2795C17.2212 26.0518 17.164 26.0364 17.1137 26.0072C17.0634 25.9779 17.0218 25.936 16.9932 25.8856L15.7265 23.7058C15.7069 23.6726 15.6789 23.6451 15.6452 23.6261C15.6116 23.607 15.5735 23.5969 15.5347 23.597H14.7187C14.6751 23.597 14.6333 23.6145 14.6024 23.6457C14.5716 23.6769 14.5543 23.7192 14.5543 23.7633V25.9007C14.5543 25.9408 14.5382 25.9792 14.5097 26.0076C14.4811 26.0359 14.4424 26.0519 14.402 26.0519H13.9422C13.8954 26.0519 13.8505 26.0334 13.8174 26.0005C13.7842 25.9676 13.7656 25.923 13.7656 25.8765V20.4467C13.7656 20.408 13.7809 20.3707 13.8082 20.343C13.8356 20.3153 13.8727 20.2994 13.9118 20.2986C14.9166 20.2946 15.6585 20.2976 16.1376 20.3077C17.9432 20.347 18.196 22.7928 16.7831 23.5033C16.7561 23.5169 16.7322 23.5359 16.7127 23.5589C16.6933 23.582 16.6787 23.6087 16.6699 23.6375C16.6611 23.6663 16.6582 23.6966 16.6614 23.7265C16.6647 23.7564 16.674 23.7854 16.6887 23.8116L17.8915 25.8795ZM14.5482 21.1874V22.7958C14.5482 22.8147 14.552 22.8335 14.5593 22.8509C14.5667 22.8683 14.5775 22.8841 14.5912 22.8974C14.6048 22.9106 14.6209 22.921 14.6386 22.928C14.6563 22.9349 14.6753 22.9383 14.6943 22.9379L16.0493 22.9349C16.1573 22.9345 16.2641 22.9112 16.3637 22.8663C16.4633 22.8214 16.5537 22.7558 16.6297 22.6733C16.7058 22.5908 16.766 22.4929 16.807 22.3853C16.8479 22.2776 16.8688 22.1624 16.8684 22.046V21.9251C16.868 21.8088 16.8463 21.6937 16.8046 21.5864C16.763 21.479 16.7021 21.3816 16.6254 21.2996C16.5488 21.2177 16.458 21.1527 16.3581 21.1086C16.2582 21.0644 16.1512 21.0419 16.0432 21.0423L14.6882 21.0453C14.6508 21.0461 14.6152 21.0615 14.589 21.088C14.5628 21.1146 14.5482 21.1503 14.5482 21.1874Z" fill="#011428" fill-opacity="0.5"/>
<path d="M22.0792 20.2812C22.1685 20.2812 22.2507 20.2984 22.3258 20.3326C22.392 20.3639 22.4433 20.4192 22.4689 20.4868L24.4999 25.9136C24.5053 25.9283 24.5072 25.9441 24.5054 25.9596C24.5035 25.9751 24.498 25.9899 24.4893 26.0027C24.4807 26.0155 24.469 26.0259 24.4555 26.033C24.4419 26.0401 24.4269 26.0438 24.4116 26.0436H23.8696C23.8276 26.0435 23.7865 26.0305 23.7517 26.0062C23.7169 25.9819 23.6901 25.9475 23.6747 25.9075L23.3276 24.9764C23.3065 24.9191 23.2678 24.8699 23.217 24.8357C23.1661 24.8015 23.1058 24.7841 23.0444 24.7859C22.7501 24.796 22.4324 24.802 22.0913 24.804C21.7503 24.804 21.4326 24.799 21.1383 24.7889C21.0765 24.7873 21.0159 24.8052 20.965 24.84C20.9141 24.8747 20.8757 24.9246 20.8551 24.9824L20.511 25.9136C20.4957 25.9536 20.4688 25.988 20.434 26.0123C20.3992 26.0366 20.3581 26.0496 20.3162 26.0496L19.7742 26.0526C19.7589 26.0528 19.7438 26.0492 19.7302 26.0421C19.7167 26.0349 19.7051 26.0245 19.6964 26.0117C19.6877 25.999 19.6822 25.9842 19.6804 25.9686C19.6785 25.9531 19.6804 25.9373 19.6859 25.9226L21.6955 20.4899C21.7204 20.4211 21.7718 20.3646 21.8386 20.3326C21.9117 20.2984 21.9919 20.2812 22.0792 20.2812ZM21.2114 23.9333C21.2065 23.9474 21.2051 23.9623 21.2073 23.977C21.2094 23.9917 21.215 24.0056 21.2236 24.0177C21.2323 24.0298 21.2436 24.0397 21.2569 24.0466C21.2701 24.0535 21.2847 24.0571 21.2997 24.0573H22.8739C22.8884 24.057 22.9027 24.0533 22.9157 24.0466C22.9286 24.0399 22.9397 24.0303 22.9483 24.0186C22.9568 24.0069 22.9625 23.9934 22.965 23.9791C22.9674 23.9648 22.9664 23.9502 22.9622 23.9364L22.1796 21.6175C22.1729 21.5997 22.1608 21.5844 22.145 21.5736C22.1292 21.5627 22.1105 21.5569 22.0913 21.5569C22.0722 21.5569 22.0534 21.5627 22.0377 21.5736C22.0219 21.5844 22.0098 21.5997 22.003 21.6175L21.2114 23.9333Z" fill="#011428" fill-opacity="0.5"/>
<path d="M29.0967 23.9321C29.1109 23.9321 29.1241 23.9301 29.1362 23.926C29.1537 23.9195 29.1691 23.912 29.1808 23.904C29.1925 23.8961 29.2002 23.8881 29.2032 23.8807L30.7318 20.4705C30.7697 20.3821 30.8374 20.3096 30.9233 20.2654C31.0091 20.2211 31.1078 20.2078 31.2024 20.2278C31.297 20.2478 31.3816 20.2999 31.4419 20.375C31.5021 20.4501 31.5342 20.5437 31.5326 20.6398V25.8912C31.5326 25.9345 31.5156 25.976 31.4853 26.0066C31.4551 26.0372 31.414 26.0544 31.3712 26.0544H30.9145C30.8953 26.0544 30.8763 26.0507 30.8585 26.0434C30.8408 26.0361 30.8247 26.0254 30.8111 26.0119C30.7976 25.9984 30.7868 25.9824 30.7794 25.9648C30.7721 25.9472 30.7683 25.9284 30.7683 25.9093V22.4567C30.768 22.4364 30.7607 22.4165 30.7475 22.4007C30.7343 22.3848 30.7161 22.374 30.6961 22.37C30.6762 22.366 30.6557 22.3692 30.6383 22.379C30.6209 22.3888 30.6076 22.4045 30.6009 22.4235C30.1786 23.4554 29.7757 24.3694 29.392 25.1656C29.3453 25.2663 29.2479 25.3167 29.0997 25.3167C28.9515 25.3167 28.8531 25.2674 28.8044 25.1686C28.4187 24.3725 28.0127 23.4595 27.5864 22.4295C27.5796 22.4105 27.5664 22.3948 27.549 22.385C27.5315 22.3752 27.5111 22.372 27.4911 22.376C27.4711 22.3799 27.4529 22.3908 27.4397 22.4067C27.4265 22.4226 27.4192 22.4424 27.4189 22.4628L27.4341 25.9153C27.4341 25.9538 27.4187 25.9907 27.3913 26.018C27.3639 26.0452 27.3268 26.0605 27.288 26.0605L26.8313 26.0635C26.7885 26.0635 26.7474 26.0463 26.7171 26.0157C26.6869 25.985 26.6699 25.9435 26.6699 25.9002L26.6486 20.6488C26.6462 20.5525 26.6778 20.4584 26.7377 20.3827C26.7977 20.307 26.8824 20.2544 26.9772 20.234C27.072 20.2136 27.1711 20.2267 27.2572 20.2709C27.3434 20.3152 27.4113 20.3879 27.4494 20.4765L28.9901 23.8807C28.993 23.8881 29.0007 23.8961 29.0124 23.9041C29.0241 23.912 29.0395 23.9196 29.0571 23.926C29.0693 23.9301 29.0825 23.9321 29.0967 23.9321Z" fill="#011428" fill-opacity="0.5"/>
<path d="M34.8286 20.2891H34.3536C34.2662 20.2891 34.1953 20.3594 34.1953 20.4463V25.9002C34.1953 25.9871 34.2662 26.0574 34.3536 26.0574H34.8286C34.9161 26.0574 34.987 25.9871 34.987 25.9002V20.4463C34.987 20.3594 34.9161 20.2891 34.8286 20.2891Z" fill="#011428" fill-opacity="0.5"/>
<path d="M38.3252 23.1916C38.3211 23.7982 38.3252 24.1681 38.3374 24.3011C38.3453 24.3906 38.369 24.4786 38.4074 24.5611C38.8489 25.5074 40.009 25.6827 40.5114 24.7486C40.5659 24.6481 40.6467 24.5641 40.7453 24.5055C40.844 24.447 40.9568 24.416 41.0717 24.416H41.1783C41.2205 24.416 41.2621 24.4265 41.2993 24.4464C41.3364 24.4663 41.368 24.495 41.391 24.5299C41.414 24.5648 41.4278 24.6047 41.4311 24.6461C41.4343 24.6875 41.427 24.7289 41.4097 24.7667C40.5601 26.62 37.8654 26.5716 37.5518 24.4734C37.5294 24.3203 37.5203 23.891 37.5244 23.1855C37.5284 22.4821 37.5426 22.0538 37.567 21.9006C37.905 19.8055 40.5997 19.7904 41.4279 21.6527C41.4447 21.6906 41.4515 21.732 41.4478 21.7732C41.444 21.8144 41.4299 21.8541 41.4066 21.8887C41.3833 21.9232 41.3516 21.9515 41.3144 21.971C41.2771 21.9906 41.2356 22.0007 41.1935 22.0004L41.0869 21.9974C40.9719 21.9962 40.8593 21.9641 40.7612 21.9045C40.6631 21.8449 40.5831 21.76 40.5297 21.6588C40.0395 20.7186 38.8763 20.8818 38.4226 21.822C38.3835 21.9034 38.3588 21.9904 38.3495 22.079C38.3374 22.2141 38.3292 22.5849 38.3252 23.1916Z" fill="#011428" fill-opacity="0.5"/>
<path d="M46.3379 23.1775C46.344 22.472 46.3592 22.0427 46.3836 21.8896C46.7276 19.7914 49.4285 19.7824 50.2536 21.6507C50.2705 21.6888 50.2773 21.7305 50.2734 21.772C50.2696 21.8134 50.2551 21.8533 50.2315 21.8879C50.2078 21.9225 50.1757 21.9508 50.1381 21.9701C50.1004 21.9894 50.0585 21.9992 50.0161 21.9984L49.9096 21.9954C49.7945 21.9942 49.682 21.9621 49.5839 21.9025C49.4857 21.8429 49.4057 21.7579 49.3524 21.6568C48.8652 20.7135 47.699 20.8707 47.2422 21.814C47.2032 21.8953 47.1785 21.9822 47.1692 22.071C47.1549 22.206 47.1458 22.5769 47.1418 23.1835C47.1357 23.7922 47.1387 24.1641 47.1509 24.2991C47.1583 24.3875 47.1809 24.4744 47.2179 24.5561C47.6594 25.5054 48.8225 25.6868 49.328 24.7496C49.3828 24.6496 49.4638 24.5663 49.5625 24.5083C49.6611 24.4503 49.7736 24.4198 49.8883 24.42H49.9948C50.0371 24.4201 50.0787 24.4305 50.1158 24.4504C50.153 24.4703 50.1845 24.499 50.2076 24.5339C50.2306 24.5688 50.2444 24.6088 50.2476 24.6501C50.2509 24.6915 50.2435 24.733 50.2262 24.7707C49.3706 26.627 46.6698 26.5696 46.3623 24.4654C46.3399 24.3142 46.3318 23.8849 46.3379 23.1775Z" fill="#011428" fill-opacity="0.5"/>
<path d="M56.5845 24.2221C56.5849 24.4651 56.5372 24.7058 56.4439 24.9304C56.3507 25.1551 56.2138 25.3593 56.041 25.5314C55.8683 25.7035 55.6631 25.8401 55.4372 25.9335C55.2112 26.0269 54.969 26.0752 54.7243 26.0756L54.4563 26.0761C54.2116 26.0765 53.9692 26.029 53.743 25.9365C53.5167 25.8439 53.311 25.7079 53.1377 25.5364C52.9643 25.3649 52.8267 25.1612 52.7327 24.9369C52.6386 24.7125 52.59 24.472 52.5896 24.229L52.5859 22.143C52.5855 21.9 52.6333 21.6594 52.7265 21.4347C52.8198 21.2101 52.9567 21.0059 53.1294 20.8338C53.3022 20.6616 53.5074 20.525 53.7333 20.4316C53.9592 20.3383 54.2014 20.29 54.4462 20.2895L54.7141 20.2891C54.9588 20.2886 55.2012 20.3361 55.4275 20.4287C55.6538 20.5213 55.8594 20.6572 56.0328 20.8287C56.2061 21.0002 56.3437 21.204 56.4378 21.4283C56.5318 21.6526 56.5804 21.8931 56.5809 22.1361L56.5845 24.2221ZM55.7758 22.1607C55.7758 21.864 55.6571 21.5795 55.4458 21.3697C55.2345 21.16 54.948 21.0421 54.6492 21.0421H54.5213C54.2225 21.0421 53.9359 21.16 53.7246 21.3697C53.5134 21.5795 53.3947 21.864 53.3947 22.1607V24.2105C53.3947 24.5071 53.5134 24.7917 53.7246 25.0014C53.9359 25.2112 54.2225 25.3291 54.5213 25.3291H54.6492C54.948 25.3291 55.2345 25.2112 55.4458 25.0014C55.6571 24.7917 55.7758 24.5071 55.7758 24.2105V22.1607Z" fill="#011428" fill-opacity="0.5"/>
<path d="M75.4954 24.2431C75.4971 24.7306 75.3037 25.1988 74.9577 25.5447C74.6117 25.8906 74.1415 26.0859 73.6505 26.0876L73.3887 26.0885C72.8977 26.0902 72.4261 25.8982 72.0777 25.5547C71.7293 25.2112 71.5326 24.7443 71.5309 24.2568L71.5234 22.1345C71.5217 21.647 71.7151 21.1788 72.0611 20.8329C72.4071 20.487 72.8773 20.2917 73.3683 20.29L73.6301 20.2891C74.1211 20.2874 74.5927 20.4794 74.9411 20.8229C75.2895 21.1664 75.4862 21.6333 75.4879 22.1208L75.4954 24.2431ZM74.7 22.179C74.7 22.0309 74.6706 21.8843 74.6135 21.7475C74.5564 21.6107 74.4728 21.4864 74.3673 21.3816C74.2618 21.2769 74.1366 21.1939 73.9988 21.1372C73.861 21.0805 73.7134 21.0514 73.5642 21.0514H73.4363C73.2872 21.0514 73.1395 21.0805 73.0017 21.1372C72.8639 21.1939 72.7387 21.2769 72.6332 21.3816C72.5278 21.4864 72.4441 21.6107 72.387 21.7475C72.3299 21.8843 72.3006 22.0309 72.3006 22.179V24.1986C72.3006 24.4976 72.4202 24.7845 72.6332 24.996C72.8462 25.2074 73.1351 25.3262 73.4363 25.3262H73.5642C73.8654 25.3262 74.1543 25.2074 74.3673 24.996C74.5803 24.7845 74.7 24.4976 74.7 24.1986V22.179Z" fill="#011428" fill-opacity="0.5"/>
<path d="M82.1931 25.8803C82.2033 25.8977 82.2086 25.9176 82.2086 25.9378C82.2086 25.958 82.2032 25.9778 82.193 25.9953C82.1829 26.0127 82.1682 26.0272 82.1506 26.0373C82.133 26.0474 82.113 26.0526 82.0926 26.0526H81.5811C81.5228 26.0525 81.4656 26.0371 81.4153 26.0079C81.365 25.9787 81.3235 25.9367 81.2949 25.8863L80.0343 23.7065C80.0154 23.6728 79.9877 23.6447 79.954 23.6251C79.9202 23.6054 79.8818 23.5949 79.8424 23.5947H79.0264C78.9828 23.5947 78.941 23.6122 78.9101 23.6434C78.8793 23.6746 78.862 23.7169 78.862 23.761L78.8589 25.8954C78.8589 25.9355 78.8429 25.9739 78.8143 26.0023C78.7858 26.0306 78.7471 26.0465 78.7067 26.0465L78.2469 26.0435C78.2001 26.0435 78.1552 26.025 78.122 25.9922C78.0889 25.9593 78.0703 25.9147 78.0703 25.8682L78.0825 20.4475C78.0825 20.4087 78.0978 20.3715 78.1251 20.3438C78.1524 20.3161 78.1896 20.3001 78.2286 20.2993C79.2314 20.2973 79.9724 20.3013 80.4514 20.3114C82.254 20.3538 82.5037 22.7996 81.0909 23.504C81.0634 23.5175 81.0389 23.5364 81.019 23.5595C80.999 23.5825 80.984 23.6093 80.9749 23.6382C80.9658 23.6671 80.9627 23.6974 80.9659 23.7274C80.9691 23.7573 80.9784 23.7862 80.9934 23.8124L82.1931 25.8803ZM78.8407 21.1458L78.8528 22.851C78.8536 22.8745 78.8636 22.8968 78.8807 22.9131C78.8977 22.9295 78.9205 22.9386 78.9442 22.9386L80.3875 22.9296C80.4899 22.9288 80.5911 22.9062 80.6854 22.863C80.7797 22.8197 80.8652 22.7567 80.9371 22.6775C81.0089 22.5984 81.0656 22.5046 81.104 22.4015C81.1424 22.2985 81.1618 22.1882 81.1609 22.077V21.8835C81.1592 21.6591 81.0754 21.4445 80.9281 21.2869C80.7808 21.1293 80.582 21.0416 80.3753 21.0431L78.932 21.0521C78.9198 21.0521 78.9076 21.0546 78.8963 21.0593C78.8851 21.0641 78.8748 21.071 78.8663 21.0797C78.8578 21.0885 78.8511 21.0989 78.8467 21.1102C78.8423 21.1216 78.8403 21.1337 78.8407 21.1458Z" fill="#011428" fill-opacity="0.5"/>
<path d="M86.4022 24.8032C86.0611 24.8032 85.7424 24.7981 85.446 24.788C85.3847 24.7862 85.3243 24.8037 85.2735 24.8379C85.2226 24.872 85.1839 24.9213 85.1629 24.9785L84.8188 25.9127C84.8034 25.9527 84.7766 25.9871 84.7418 26.0114C84.707 26.0357 84.6659 26.0487 84.6239 26.0487H84.0819C84.0664 26.0494 84.0509 26.0462 84.037 26.0393C84.023 26.0324 84.011 26.022 84.0019 26.0092C83.9929 25.9963 83.9871 25.9813 83.9851 25.9655C83.9832 25.9498 83.985 25.9337 83.9906 25.9187L86.0124 20.4859C86.0373 20.4172 86.0887 20.3607 86.1555 20.3287C86.2306 20.2945 86.3128 20.2773 86.4022 20.2773C86.4894 20.2773 86.5706 20.2945 86.6457 20.3287C86.7126 20.3607 86.764 20.4172 86.7889 20.4859L88.8107 25.9187C88.8162 25.9337 88.8181 25.9498 88.8161 25.9655C88.8141 25.9813 88.8084 25.9963 88.7993 26.0092C88.7903 26.022 88.7783 26.0324 88.7643 26.0393C88.7503 26.0462 88.7349 26.0494 88.7193 26.0487H88.1773C88.1354 26.0487 88.0943 26.0357 88.0595 26.0114C88.0247 25.9871 87.9978 25.9527 87.9825 25.9127L87.6384 24.9785C87.6173 24.9213 87.5786 24.872 87.5278 24.8379C87.4769 24.8037 87.4166 24.7862 87.3552 24.788C87.0588 24.7981 86.7412 24.8032 86.4022 24.8032ZM85.5374 23.9415C85.5331 23.9556 85.5322 23.9705 85.5348 23.985C85.5373 23.9995 85.5433 24.0132 85.5522 24.025C85.5611 24.0368 85.5727 24.0463 85.586 24.0528C85.5993 24.0593 85.6139 24.0626 85.6287 24.0625L87.1816 24.0564C87.1962 24.0561 87.2105 24.0525 87.2234 24.0457C87.2363 24.039 87.2475 24.0294 87.2561 24.0177C87.2646 24.006 87.2703 23.9925 87.2727 23.9782C87.2751 23.964 87.2742 23.9493 87.2699 23.9355L86.4874 21.5985C86.4813 21.5796 86.4693 21.5632 86.4531 21.5515C86.437 21.5399 86.4175 21.5336 86.3976 21.5336C86.3776 21.5336 86.3582 21.5399 86.342 21.5515C86.3259 21.5632 86.3139 21.5796 86.3078 21.5985L85.5374 23.9415Z" fill="#011428" fill-opacity="0.5"/>
<path d="M92.0466 20.2992C92.6921 20.3033 93.3021 20.3012 93.8766 20.2932C93.9024 20.2928 93.9281 20.2974 93.9521 20.3068C93.9761 20.3162 93.998 20.3302 94.0164 20.3479C94.0348 20.3656 94.0494 20.3868 94.0594 20.4101C94.0694 20.4334 94.0745 20.4584 94.0745 20.4836V20.9009C94.0745 20.9474 94.0559 20.992 94.0228 21.0248C93.9897 21.0577 93.9447 21.0762 93.8979 21.0762H92.616C92.5924 21.0762 92.569 21.0807 92.5473 21.0896C92.5255 21.0984 92.5057 21.1113 92.489 21.1276C92.4723 21.1438 92.4591 21.1632 92.45 21.1845C92.441 21.2057 92.4364 21.2285 92.4364 21.2516V25.8318C92.4369 25.8826 92.4187 25.9319 92.3852 25.9708C92.3516 26.0097 92.3049 26.0354 92.2537 26.0434C92.2049 26.0495 92.1339 26.0525 92.0405 26.0525C91.9451 26.0525 91.873 26.0485 91.8243 26.0404C91.7736 26.0325 91.7273 26.0072 91.6938 25.9689C91.6604 25.9307 91.6419 25.8821 91.6416 25.8318L91.6508 21.2516C91.6508 21.2056 91.6323 21.1614 91.5992 21.1286C91.5662 21.0958 91.5213 21.077 91.4742 21.0762L90.1923 21.0732C90.1454 21.0732 90.1005 21.0547 90.0674 21.0218C90.0343 20.9889 90.0157 20.9443 90.0157 20.8978V20.4806C90.0152 20.4551 90.0201 20.4298 90.0298 20.4061C90.0396 20.3824 90.0542 20.3609 90.0727 20.3429C90.0911 20.3248 90.1131 20.3106 90.1373 20.301C90.1615 20.2914 90.1875 20.2867 90.2136 20.2871C90.788 20.2992 91.3991 20.3033 92.0466 20.2992Z" fill="#011428" fill-opacity="0.5"/>
<path d="M96.5261 20.294L96.0998 20.2933C95.9972 20.2931 95.9139 20.3755 95.9137 20.4774L95.9043 25.8648C95.9041 25.9667 95.9871 26.0494 96.0897 26.0496L96.516 26.0503C96.6186 26.0505 96.7019 25.9681 96.702 25.8662L96.7115 20.4788C96.7117 20.3769 96.6287 20.2942 96.5261 20.294Z" fill="#011428" fill-opacity="0.5"/>
<path d="M103.256 24.2379C103.257 24.7278 103.063 25.1983 102.715 25.5459C102.368 25.8936 101.895 26.0898 101.402 26.0915L101.14 26.0924C100.647 26.0941 100.173 25.9012 99.8225 25.556C99.4724 25.2108 99.2748 24.7416 99.273 24.2517L99.2656 22.1475C99.2639 21.6576 99.4583 21.1871 99.8059 20.8395C100.154 20.4919 100.626 20.2956 101.12 20.2939L101.381 20.293C101.875 20.2913 102.349 20.4842 102.699 20.8294C103.049 21.1747 103.247 21.6438 103.248 22.1337L103.256 24.2379ZM102.437 22.1597C102.437 21.8647 102.318 21.5819 102.108 21.3736C101.897 21.1653 101.612 21.0486 101.315 21.0491L101.193 21.0493C100.896 21.0499 100.611 21.1676 100.401 21.3766C100.191 21.5856 100.074 21.8688 100.074 22.1638L100.078 24.2257C100.079 24.5208 100.197 24.8035 100.408 25.0118C100.618 25.2201 100.903 25.3368 101.201 25.3363L101.322 25.3361C101.62 25.3356 101.904 25.2178 102.114 25.0088C102.324 24.7998 102.441 24.5166 102.441 24.2216L102.437 22.1597Z" fill="#011428" fill-opacity="0.5"/>
<path d="M107.606 23.3915C107.056 22.5531 106.763 22.1066 106.726 22.0522C106.718 22.0367 106.705 22.0246 106.689 22.0178C106.672 22.011 106.654 22.0101 106.637 22.015C106.62 22.02 106.606 22.0307 106.596 22.0452C106.586 22.0597 106.582 22.0771 106.583 22.0945V25.8917C106.583 25.9406 106.564 25.9876 106.529 26.0221C106.494 26.0567 106.447 26.0762 106.398 26.0762H106.008C105.96 26.0762 105.914 26.0574 105.881 26.0239C105.847 25.9905 105.828 25.9451 105.828 25.8978V20.6071C105.827 20.5221 105.853 20.4389 105.904 20.3704C105.955 20.3018 106.027 20.2515 106.109 20.2272C106.191 20.2029 106.279 20.2059 106.359 20.2357C106.439 20.2655 106.507 20.3206 106.553 20.3924C107.156 21.3236 107.72 22.1893 108.246 22.9894C108.794 23.8279 109.086 24.2743 109.123 24.3287C109.131 24.3442 109.144 24.3563 109.161 24.3631C109.177 24.3699 109.195 24.3709 109.212 24.3659C109.229 24.3609 109.243 24.3502 109.253 24.3357C109.263 24.3212 109.268 24.3038 109.266 24.2864V20.4892C109.266 20.4403 109.285 20.3934 109.32 20.3588C109.355 20.3242 109.402 20.3048 109.452 20.3048H109.841C109.889 20.3048 109.935 20.3236 109.968 20.357C110.002 20.3905 110.021 20.4358 110.021 20.4831V25.7738C110.022 25.8586 109.995 25.9412 109.944 26.0093C109.893 26.0774 109.821 26.1271 109.739 26.151C109.657 26.175 109.57 26.1717 109.49 26.1419C109.41 26.112 109.342 26.0571 109.296 25.9855C108.693 25.0543 108.13 24.1896 107.606 23.3915Z" fill="#011428" fill-opacity="0.5"/>
<path d="M63.2695 25.8805C63.2805 25.898 63.2865 25.9182 63.2868 25.9388C63.2872 25.9594 63.282 25.9798 63.2717 25.9977C63.2614 26.0157 63.2465 26.0306 63.2284 26.0408C63.2103 26.051 63.1898 26.0562 63.169 26.0558L62.6575 26.0528C62.5992 26.0527 62.542 26.0373 62.4917 26.0081C62.4414 25.9789 62.3999 25.9369 62.3713 25.8865L61.1046 23.7067C61.0853 23.673 61.0575 23.6449 61.0238 23.6253C60.9901 23.6056 60.9518 23.5951 60.9128 23.5949H60.0967C60.0531 23.5949 60.0113 23.6124 59.9805 23.6436C59.9496 23.6748 59.9323 23.717 59.9323 23.7611V25.9016C59.9323 25.9217 59.9283 25.9416 59.9204 25.9602C59.9126 25.9787 59.9011 25.9955 59.8866 26.0096C59.8722 26.0237 59.855 26.0347 59.8362 26.0422C59.8174 26.0496 59.7973 26.0532 59.777 26.0528H59.3172C59.294 26.0528 59.2711 26.0482 59.2496 26.0394C59.2282 26.0306 59.2087 26.0177 59.1924 26.0014C59.176 25.9851 59.1629 25.9658 59.1541 25.9445C59.1452 25.9233 59.1406 25.9005 59.1406 25.8774L59.1437 20.4416C59.1437 20.4028 59.159 20.3656 59.1863 20.3379C59.2136 20.3102 59.2508 20.2943 59.2898 20.2935C60.2967 20.2915 61.0396 20.2955 61.5187 20.3056C63.3243 20.3449 63.5771 22.7937 62.1642 23.5042C62.137 23.5176 62.1127 23.5363 62.0929 23.5593C62.0732 23.5822 62.0583 23.6089 62.0492 23.6377C62.0401 23.6665 62.037 23.6969 62.04 23.7269C62.043 23.757 62.0521 23.7861 62.0668 23.8125L63.2695 25.8805ZM59.9384 21.1823L59.9506 22.8088C59.9506 22.8254 59.9539 22.8417 59.9604 22.857C59.9668 22.8722 59.9763 22.886 59.9882 22.8976C60.0001 22.9091 60.0142 22.9182 60.0297 22.9242C60.0452 22.9303 60.0618 22.9332 60.0785 22.9328L61.4517 22.9207C61.6612 22.9184 61.8613 22.8277 62.008 22.6684C62.1547 22.5092 62.236 22.2944 62.2343 22.0711V21.8837C62.2334 21.7727 62.212 21.663 62.1712 21.5608C62.1305 21.4585 62.0712 21.3659 61.9968 21.2881C61.9224 21.2103 61.8343 21.1489 61.7377 21.1074C61.641 21.0659 61.5376 21.0451 61.4334 21.0463L60.0602 21.0584C60.0276 21.0591 59.9966 21.0726 59.9739 21.0957C59.9511 21.1189 59.9384 21.15 59.9384 21.1823Z" fill="#011428" fill-opacity="0.5"/>
<path d="M66.3494 24.0764V25.8812C66.3494 25.9261 66.3314 25.9692 66.2995 26.001C66.2675 26.0327 66.2241 26.0505 66.1789 26.0505H65.7252C65.68 26.0505 65.6366 26.0327 65.6046 26.001C65.5727 25.9692 65.5547 25.9261 65.5547 25.8812V20.521C65.5547 20.4659 65.5763 20.413 65.6149 20.3735C65.6536 20.334 65.7063 20.311 65.7617 20.3094C67.0812 20.265 67.9186 20.2933 68.2738 20.394C69.2543 20.6661 69.7201 21.6517 69.4309 22.6101C69.0168 23.9947 67.7166 23.8436 66.5473 23.8738C66.4943 23.8754 66.4439 23.8974 66.407 23.9352C66.37 23.973 66.3494 24.0237 66.3494 24.0764ZM66.3494 21.1559L66.3555 23.0061C66.3555 23.0318 66.3658 23.0564 66.384 23.0745C66.4023 23.0927 66.4271 23.1029 66.4529 23.1029L67.7562 23.0999C67.8817 23.0995 68.006 23.0739 68.1218 23.0246C68.2377 22.9753 68.3428 22.9033 68.4313 22.8126C68.5198 22.7219 68.5899 22.6144 68.6376 22.4961C68.6853 22.3778 68.7096 22.2512 68.7092 22.1233V22.0266C68.7088 21.8988 68.6837 21.7722 68.6353 21.6543C68.5869 21.5363 68.5161 21.4292 68.427 21.3391C68.338 21.249 68.2323 21.1776 68.1162 21.1291C68 21.0805 67.8756 21.0557 67.7501 21.0561L66.4468 21.0592C66.421 21.0592 66.3962 21.0693 66.378 21.0875C66.3597 21.1056 66.3494 21.1302 66.3494 21.1559Z" fill="#011428" fill-opacity="0.5"/>
</g>
<defs>
<clipPath id="clip0_353_4176">
<rect width="112.357" height="26" fill="white"/>
</clipPath>
</defs>
</svg>
