<svg width="46" height="47" viewBox="0 0 46 47" fill="none" xmlns="http://www.w3.org/2000/svg">
<g clip-path="url(#clip0_353_4226)">
<path d="M45.88 1.38686C45.88 1.57053 45.8436 1.7524 45.7728 1.92208C45.702 2.09176 45.5982 2.24594 45.4674 2.37581C45.3366 2.50568 45.1813 2.6087 45.0104 2.67899C44.8394 2.74927 44.6563 2.78545 44.4713 2.78545C44.0976 2.78545 43.7393 2.6381 43.4751 2.37581C43.2109 2.11353 43.0625 1.75779 43.0625 1.38686C43.0625 1.01594 43.2109 0.660202 43.4751 0.397917C43.7393 0.135632 44.0976 -0.0117187 44.4713 -0.0117188C44.8449 -0.0117187 45.2032 0.135632 45.4674 0.397917C45.7316 0.660202 45.88 1.01594 45.88 1.38686ZM45.6213 1.38686C45.6213 1.08659 45.5011 0.798614 45.2872 0.586288C45.0734 0.373962 44.7833 0.254678 44.4808 0.254678C44.1784 0.254678 43.8883 0.373962 43.6744 0.586288C43.4606 0.798614 43.3404 1.08659 43.3404 1.38686C43.3404 1.68714 43.4606 1.97511 43.6744 2.18744C43.8883 2.39977 44.1784 2.51905 44.4808 2.51905C44.7833 2.51905 45.0734 2.39977 45.2872 2.18744C45.5011 1.97511 45.6213 1.68714 45.6213 1.38686Z" fill="#011428" fill-opacity="0.5"/>
<path d="M44.1339 1.68219C44.1709 1.84076 44.1735 1.96825 44.1415 2.06466C44.1321 2.09621 44.1113 2.12324 44.0832 2.14069C44.0551 2.15814 44.0216 2.16481 43.9889 2.15944C43.9562 2.15406 43.9266 2.13702 43.9056 2.11151C43.8847 2.08601 43.8738 2.05378 43.8751 2.0209V0.751706C43.875 0.719575 43.8871 0.688529 43.909 0.664612C43.931 0.640695 43.9613 0.625618 43.9939 0.622314C44.3939 0.584257 44.6967 0.619142 44.9024 0.726969C44.9344 0.743197 44.9627 0.765954 44.9855 0.793797C45.0082 0.82164 45.025 0.853961 45.0347 0.88871C45.1126 1.16272 45.0449 1.34158 44.8315 1.42531C44.8174 1.43094 44.8048 1.43963 44.7946 1.45075C44.7843 1.46186 44.7767 1.47512 44.7723 1.48954C44.7679 1.50396 44.7668 1.51918 44.7691 1.53408C44.7713 1.54898 44.777 1.56318 44.7855 1.57563L45.0481 1.95239C45.0618 1.97273 45.0671 1.9975 45.0628 2.02136C45.0585 2.04521 45.045 2.06623 45.0251 2.07988L44.9504 2.12936C44.9331 2.14104 44.9136 2.14892 44.8931 2.15246C44.8725 2.15601 44.8515 2.15513 44.8313 2.1499C44.8111 2.14467 44.7923 2.1352 44.7762 2.12214C44.76 2.10908 44.7469 2.09272 44.7376 2.07418C44.5894 1.7748 44.4648 1.59149 44.3639 1.52426C44.3391 1.50747 44.3098 1.49857 44.2799 1.49871C44.2499 1.49885 44.2206 1.50803 44.1959 1.52504C44.1711 1.54206 44.1519 1.56614 44.1409 1.59416C44.1298 1.62217 44.1274 1.65284 44.1339 1.68219ZM44.7305 1.0597C44.7251 1.0004 44.6863 0.946563 44.6227 0.910033C44.559 0.873503 44.4758 0.857271 44.3913 0.864906C44.3494 0.868688 44.3085 0.878216 44.2709 0.892948C44.2332 0.90768 44.1996 0.927326 44.1719 0.950764C44.1442 0.974203 44.123 1.00097 44.1094 1.02955C44.0959 1.05813 44.0903 1.08795 44.093 1.11732C44.0985 1.17662 44.1373 1.23045 44.2009 1.26698C44.2645 1.30351 44.3477 1.31975 44.4323 1.31211C44.4741 1.30833 44.515 1.2988 44.5527 1.28407C44.5903 1.26934 44.624 1.24969 44.6517 1.22625C44.6794 1.20281 44.7006 1.17604 44.7141 1.14746C44.7276 1.11889 44.7332 1.08906 44.7305 1.0597Z" fill="#011428" fill-opacity="0.5"/>
<path d="M25.5906 2.82031H42.4381C42.4519 2.82031 42.4656 2.82302 42.4784 2.82828C42.4912 2.83354 42.5028 2.84125 42.5126 2.85097C42.5224 2.86068 42.5302 2.87222 42.5355 2.88492C42.5408 2.89762 42.5435 2.91122 42.5435 2.92497V4.43011C42.5436 4.48546 42.5239 4.53932 42.4879 4.58234C38.7197 9.13011 33.9332 12.0262 28.1282 13.2707C27.8848 13.3221 27.5494 13.3297 27.2849 13.4115C27.254 13.4208 27.2268 13.4399 27.2075 13.466C27.1882 13.492 27.1777 13.5236 27.1776 13.5561V22.5946C27.1776 22.6233 27.1659 22.6509 27.145 22.6713C27.1242 22.6916 27.0959 22.703 27.0664 22.703L23.0644 22.7049C23.0492 22.7049 23.0345 22.6987 23.0238 22.6877C23.013 22.6766 23.0069 22.6616 23.0069 22.6459V21.0932C23.0069 21.0796 23.0124 21.0665 23.0221 21.0569C23.0318 21.0473 23.0449 21.0419 23.0587 21.0419H25.3682C25.3972 21.0419 25.425 21.0304 25.4455 21.0101C25.466 20.9897 25.4775 20.9622 25.4775 20.9334V13.7749C25.4775 13.7608 25.4746 13.7468 25.469 13.7338C25.4633 13.7208 25.455 13.7091 25.4445 13.6994C25.4341 13.6898 25.4218 13.6824 25.4083 13.6777C25.3948 13.673 25.3806 13.6711 25.3663 13.6722C23.8164 13.7838 22.2984 13.7832 20.8123 13.6703C20.8028 13.6695 20.7932 13.6707 20.7842 13.6739C20.7752 13.6771 20.7669 13.6821 20.7598 13.6888C20.7528 13.6954 20.7472 13.7034 20.7434 13.7123C20.7395 13.7213 20.7376 13.7309 20.7376 13.7407V27.6808C20.7376 27.6863 20.7364 27.6918 20.7342 27.6969C20.732 27.7019 20.7288 27.7066 20.7247 27.7104C20.7206 27.7143 20.7157 27.7174 20.7104 27.7195C20.705 27.7216 20.6993 27.7227 20.6935 27.7227H19.1122C19.098 27.7227 19.0844 27.7171 19.0743 27.7071C19.0642 27.6971 19.0586 27.6836 19.0586 27.6694V13.5409C19.0586 13.5132 19.0488 13.4865 19.0309 13.4652C19.0131 13.444 18.9882 13.4297 18.9608 13.4248C13.9059 12.5495 9.52061 10.3543 5.80483 6.8391C4.87717 5.96253 4.18142 5.19378 3.71758 4.53286C3.67772 4.47723 3.65629 4.41139 3.65625 4.34448V2.92307C3.65625 2.89581 3.66736 2.86968 3.68713 2.85041C3.7069 2.83114 3.73371 2.82031 3.76167 2.82031H20.6858C20.6996 2.82031 20.7127 2.82573 20.7224 2.83536C20.7321 2.845 20.7376 2.85806 20.7376 2.87169V11.8645C20.7374 11.8901 20.7469 11.9149 20.7642 11.9342C20.7815 11.9534 20.8055 11.9659 20.8315 11.9691C22.3636 12.1366 23.8803 12.1379 25.3817 11.9729C25.4082 11.9697 25.4326 11.957 25.4503 11.9374C25.468 11.9178 25.4776 11.8925 25.4775 11.8664V2.93258C25.4775 2.9028 25.4894 2.87425 25.5106 2.85319C25.5318 2.83214 25.5606 2.82031 25.5906 2.82031ZM5.88533 4.39205C5.87644 4.39201 5.86772 4.39453 5.86023 4.39931C5.85275 4.40409 5.84682 4.41092 5.84317 4.41898C5.83952 4.42704 5.8383 4.43597 5.83966 4.4447C5.84102 4.45343 5.8449 4.46158 5.85083 4.46817C9.40561 8.3157 13.7737 10.7393 18.9551 11.7389C18.9677 11.7411 18.9807 11.7406 18.9931 11.7373C19.0055 11.734 19.017 11.7281 19.0269 11.7199C19.0367 11.7118 19.0447 11.7016 19.0501 11.6901C19.0556 11.6786 19.0585 11.666 19.0586 11.6533L19.0567 4.50052C19.0567 4.47124 19.0452 4.44317 19.0247 4.42248C19.0042 4.40178 18.9764 4.39015 18.9474 4.39015L5.88533 4.39205ZM40.3489 4.39015H27.2849C27.2706 4.39015 27.2564 4.39301 27.2431 4.39855C27.2299 4.4041 27.2178 4.41223 27.2077 4.42248C27.1975 4.43272 27.1895 4.44489 27.184 4.45828C27.1785 4.47167 27.1757 4.48602 27.1757 4.50052V11.6533C27.1757 11.666 27.1786 11.6786 27.1841 11.6901C27.1896 11.7016 27.1975 11.7118 27.2074 11.7199C27.2172 11.7281 27.2288 11.734 27.2412 11.7373C27.2536 11.7406 27.2665 11.7411 27.2792 11.7389C32.4606 10.7393 36.8286 8.31506 40.3834 4.46626C40.3893 4.45968 40.3932 4.45153 40.3946 4.4428C40.396 4.43407 40.3947 4.42513 40.3911 4.41708C40.3874 4.40902 40.3815 4.40219 40.374 4.39741C40.3665 4.39263 40.3578 4.39011 40.3489 4.39015Z" fill="#011428" fill-opacity="0.5"/>
<path d="M18.1508 35.5502C18.1538 36.1149 18.0389 36.6747 17.8127 37.1976C17.5865 37.7206 17.2534 38.1964 16.8325 38.5979C16.4116 38.9994 15.911 39.3188 15.3594 39.5378C14.8078 39.7568 14.2159 39.8711 13.6177 39.8742C12.4094 39.8805 11.2482 39.4334 10.3895 38.6314C9.5309 37.8294 9.04514 36.7381 9.03912 35.5975C9.03614 35.0328 9.15103 34.473 9.37723 33.9501C9.60343 33.4271 9.93652 32.9513 10.3575 32.5498C10.7784 32.1483 11.279 31.8289 11.8306 31.6099C12.3822 31.3909 12.974 31.2766 13.5723 31.2735C14.7806 31.2672 15.9418 31.7143 16.8004 32.5163C17.6591 33.3183 18.1448 34.4096 18.1508 35.5502ZM16.9951 35.5562C16.9921 35.1337 16.902 34.7159 16.7301 34.3267C16.5581 33.9375 16.3075 33.5845 15.9927 33.2878C15.6779 32.9912 15.305 32.7568 14.8953 32.5979C14.4856 32.4391 14.0472 32.3589 13.6049 32.3619C13.1627 32.365 12.7254 32.4513 12.318 32.6158C11.9105 32.7803 11.541 33.0199 11.2304 33.3209C10.9198 33.6218 10.6742 33.9782 10.5077 34.3698C10.3412 34.7614 10.2571 35.1804 10.2601 35.6029C10.263 36.0255 10.3531 36.4433 10.5251 36.8325C10.697 37.2217 10.9476 37.5747 11.2624 37.8713C11.5772 38.1679 11.9501 38.4023 12.3598 38.5612C12.7695 38.7201 13.208 38.8002 13.6502 38.7972C14.0924 38.7941 14.5297 38.7078 14.9372 38.5433C15.3446 38.3788 15.7142 38.1392 16.0248 37.8382C16.3354 37.5373 16.5809 37.1809 16.7474 36.7893C16.9139 36.3978 16.998 35.9788 16.9951 35.5562Z" fill="#011428" fill-opacity="0.5"/>
<path d="M38.8292 34.2372C38.8573 34.2372 38.8758 34.2315 38.8847 34.22C39.5696 33.3371 40.2641 32.4555 40.9682 31.5751C41.0153 31.5164 41.0751 31.469 41.1432 31.4363C41.2112 31.4037 41.2857 31.3868 41.3611 31.3867H42.4229C42.4378 31.3866 42.4525 31.3907 42.4652 31.3986C42.4778 31.4065 42.488 31.4177 42.4944 31.4311C42.5008 31.4445 42.5033 31.4594 42.5015 31.4741C42.4997 31.4888 42.4937 31.5027 42.4842 31.5142L39.5326 35.2019C39.4805 35.2672 39.4521 35.3483 39.4521 35.4321V39.6507C39.4521 39.6763 39.4424 39.7009 39.4249 39.7194C39.4073 39.7378 39.3834 39.7487 39.3582 39.7497C39.2841 39.7535 39.1084 39.7554 38.8311 39.7554C38.5551 39.7554 38.3794 39.7535 38.304 39.7497C38.2791 39.7482 38.2556 39.7371 38.2385 39.7187C38.2214 39.7003 38.2119 39.676 38.212 39.6507L38.2082 35.4321C38.2081 35.3483 38.1797 35.2672 38.1277 35.2019L35.1741 31.5161C35.1647 31.5048 35.1588 31.491 35.1569 31.4765C35.155 31.462 35.1573 31.4472 35.1635 31.4339C35.1697 31.4206 35.1796 31.4093 35.192 31.4013C35.2043 31.3933 35.2187 31.3889 35.2335 31.3886H36.2953C36.3711 31.3884 36.4459 31.4052 36.5143 31.4378C36.5827 31.4705 36.6428 31.518 36.6902 31.577C37.3942 32.4561 38.0893 33.3371 38.7755 34.22C38.7832 34.2315 38.8011 34.2372 38.8292 34.2372Z" fill="#011428" fill-opacity="0.5"/>
<path d="M3.70594 31.4004H8.68735C8.7026 31.4004 8.71723 31.4064 8.72801 31.4171C8.7388 31.4278 8.74485 31.4423 8.74485 31.4575V32.4393C8.74485 32.4545 8.7388 32.469 8.72801 32.4797C8.71723 32.4904 8.7026 32.4964 8.68735 32.4964H4.91727C4.90202 32.4964 4.8874 32.5024 4.87661 32.5131C4.86583 32.5238 4.85977 32.5384 4.85977 32.5535V34.7494C4.85977 34.7645 4.86583 34.779 4.87661 34.7897C4.8874 34.8004 4.90202 34.8065 4.91727 34.8065H7.7961C7.80366 34.8065 7.81113 34.8079 7.81811 34.8108C7.82508 34.8137 7.83142 34.8179 7.83676 34.8232C7.8421 34.8285 7.84634 34.8348 7.84923 34.8417C7.85212 34.8486 7.8536 34.8561 7.8536 34.8635V35.8055C7.8536 35.8206 7.84755 35.8351 7.83676 35.8458C7.82598 35.8565 7.81135 35.8625 7.7961 35.8625H4.91919C4.90394 35.8625 4.88931 35.8685 4.87853 35.8793C4.86775 35.89 4.86169 35.9045 4.86169 35.9196V39.7025C4.86169 39.7176 4.85563 39.7321 4.84485 39.7428C4.83406 39.7535 4.81944 39.7595 4.80419 39.7595H3.70594C3.69839 39.7595 3.69091 39.7581 3.68393 39.7552C3.67696 39.7523 3.67062 39.7481 3.66528 39.7428C3.65994 39.7375 3.6557 39.7312 3.65281 39.7243C3.64992 39.7174 3.64844 39.71 3.64844 39.7025V31.4575C3.64844 31.4423 3.6545 31.4278 3.66528 31.4171C3.67606 31.4064 3.69069 31.4004 3.70594 31.4004Z" fill="#011428" fill-opacity="0.5"/>
<path d="M18.2805 39.7558C18.2691 39.7557 18.258 39.7525 18.2482 39.7466C18.2385 39.7408 18.2306 39.7324 18.2255 39.7225C18.2203 39.7127 18.218 39.7016 18.219 39.6907C18.2199 39.6798 18.2239 39.6693 18.2307 39.6606L23.4497 32.5668C23.4546 32.5598 23.4574 32.5516 23.4579 32.5431C23.4584 32.5346 23.4566 32.5261 23.4527 32.5185C23.4488 32.5109 23.4429 32.5045 23.4356 32.4999C23.4284 32.4954 23.42 32.4929 23.4114 32.4926L18.5699 32.5041C18.554 32.5041 18.5387 32.4979 18.5272 32.4869C18.5158 32.4759 18.5091 32.4609 18.5086 32.4451L18.499 31.4575C18.499 31.4505 18.5004 31.4436 18.5031 31.4371C18.5058 31.4306 18.5097 31.4248 18.5147 31.4198C18.5197 31.4149 18.5256 31.4109 18.5321 31.4083C18.5386 31.4056 18.5456 31.4042 18.5527 31.4042L25.6443 31.4004C25.6545 31.4001 25.6645 31.4027 25.6732 31.4079C25.6819 31.413 25.689 31.4205 25.6936 31.4294C25.6982 31.4384 25.7001 31.4484 25.6992 31.4585C25.6983 31.4685 25.6946 31.478 25.6884 31.486L20.4559 38.5912C20.4516 38.5969 20.449 38.6036 20.4484 38.6106C20.4478 38.6177 20.4491 38.6248 20.4523 38.6311C20.4555 38.6374 20.4604 38.6427 20.4664 38.6464C20.4725 38.6501 20.4795 38.6521 20.4866 38.6521L25.6922 38.6464C25.707 38.6464 25.7211 38.6522 25.7315 38.6626C25.742 38.6729 25.7478 38.6869 25.7478 38.7016L25.7517 39.6968C25.7519 39.7037 25.7508 39.7106 25.7483 39.717C25.7458 39.7235 25.742 39.7294 25.7372 39.7343C25.7324 39.7393 25.7266 39.7433 25.7202 39.746C25.7138 39.7487 25.7069 39.75 25.6999 39.75L18.2805 39.7558Z" fill="#011428" fill-opacity="0.5"/>
<path d="M32.0712 32.4905H27.2336C27.2183 32.4905 27.2037 32.4845 27.1929 32.4738C27.1821 32.4631 27.1761 32.4486 27.1761 32.4334V31.4497C27.1761 31.4345 27.1821 31.42 27.1929 31.4093C27.2037 31.3986 27.2183 31.3926 27.2336 31.3926H34.3233C34.334 31.3926 34.3445 31.3955 34.3535 31.4011C34.3626 31.4067 34.37 31.4147 34.3747 31.4241C34.3795 31.4336 34.3815 31.4442 34.3806 31.4548C34.3796 31.4653 34.3757 31.4754 34.3693 31.4839L29.1521 38.5644C29.1457 38.5728 29.1418 38.5829 29.1409 38.5935C29.1399 38.604 29.1419 38.6147 29.1467 38.6241C29.1515 38.6336 29.1588 38.6416 29.1679 38.6472C29.177 38.6527 29.1875 38.6557 29.1981 38.6557H34.377C34.3922 38.6557 34.4069 38.6617 34.4176 38.6724C34.4284 38.6831 34.4345 38.6976 34.4345 38.7128V39.7042C34.4345 39.7193 34.4284 39.7338 34.4176 39.7445C34.4069 39.7552 34.3922 39.7612 34.377 39.7612H26.9403C26.9296 39.7612 26.9192 39.7583 26.9101 39.7527C26.901 39.7471 26.8937 39.7392 26.8889 39.7297C26.8841 39.7202 26.8821 39.7096 26.883 39.699C26.884 39.6885 26.8879 39.6784 26.8943 39.6699L32.1172 32.5818C32.1236 32.5734 32.1275 32.5633 32.1285 32.5527C32.1295 32.5422 32.1274 32.5316 32.1227 32.5221C32.1179 32.5126 32.1105 32.5046 32.1015 32.499C32.0924 32.4935 32.0819 32.4905 32.0712 32.4905Z" fill="#011428" fill-opacity="0.5"/>
<path d="M6.63381 44.1327C6.49964 44.0565 6.26517 43.969 5.93039 43.8701C5.03147 43.6037 4.06739 44.0699 3.97922 45.0137C3.90256 45.8528 4.43731 46.4712 5.28447 46.5093C5.36881 46.5131 5.61414 46.4846 6.02047 46.4237C6.06805 46.4164 6.11142 46.3924 6.14271 46.3561C6.17401 46.3198 6.19116 46.2736 6.19106 46.2258V45.7158C6.19106 45.6855 6.17894 45.6565 6.15737 45.6351C6.13581 45.6137 6.10656 45.6016 6.07606 45.6016H5.59689C5.57707 45.6016 5.55805 45.5938 5.54403 45.5799C5.53002 45.566 5.52214 45.5471 5.52214 45.5274V45.1792C5.52214 45.161 5.52941 45.1436 5.54235 45.1308C5.55529 45.1179 5.57284 45.1107 5.59114 45.1107H6.53797C6.58677 45.1107 6.63357 45.13 6.66808 45.1642C6.70259 45.1985 6.72197 45.2449 6.72197 45.2934L6.72006 46.515C6.71957 46.5887 6.69019 46.6593 6.63823 46.7116C6.58627 46.7639 6.51587 46.7937 6.44214 46.7947C6.21981 46.7966 5.81156 46.9831 5.46464 46.985C4.4897 46.9939 3.8342 46.5448 3.49814 45.6378C3.47399 45.5722 3.45978 45.5036 3.45597 45.4342C3.37356 43.5656 5.09472 42.8901 6.60889 43.6303C6.61889 43.6355 6.62745 43.6431 6.6338 43.6524C6.64015 43.6617 6.6441 43.6724 6.64531 43.6836L6.68747 44.0984C6.68792 44.1049 6.68661 44.1113 6.68368 44.1171C6.68075 44.1229 6.67632 44.1278 6.67083 44.1313C6.66535 44.1348 6.65902 44.1367 6.65251 44.137C6.646 44.1372 6.63954 44.1357 6.63381 44.1327Z" fill="#011428" fill-opacity="0.5"/>
<path d="M23.8914 45.1535C23.8931 45.6426 23.6914 46.1123 23.3307 46.4593C22.9699 46.8063 22.4797 47.0023 21.9678 47.0041C21.4559 47.0058 20.9643 46.8133 20.6012 46.4688C20.238 46.1242 20.033 45.656 20.0313 45.1669C20.0295 44.6779 20.2312 44.2082 20.592 43.8612C20.9527 43.5142 21.443 43.3182 21.9548 43.3164C22.4667 43.3146 22.9583 43.5072 23.3215 43.8517C23.6847 44.1963 23.8897 44.6645 23.8914 45.1535ZM23.2934 45.1488C23.2934 44.7895 23.1496 44.4449 22.8937 44.1908C22.6378 43.9367 22.2907 43.794 21.9287 43.794C21.5668 43.794 21.2197 43.9367 20.9638 44.1908C20.7079 44.4449 20.5641 44.7895 20.5641 45.1488C20.5641 45.5081 20.7079 45.8527 20.9638 46.1068C21.2197 46.3609 21.5668 46.5036 21.9287 46.5036C22.2907 46.5036 22.6378 46.3609 22.8937 46.1068C23.1496 45.8527 23.2934 45.5081 23.2934 45.1488Z" fill="#011428" fill-opacity="0.5"/>
<path d="M14.8888 46.9556C14.7598 46.9239 14.6428 46.9157 14.5381 46.9309C14.5007 46.9361 14.4626 46.9308 14.4281 46.9156C14.3935 46.9005 14.3639 46.8761 14.3426 46.8453C13.8921 46.1888 13.6104 45.5133 12.9357 45.3192C12.9098 45.3118 12.8826 45.3105 12.8561 45.3154C12.8297 45.3203 12.8047 45.3311 12.7832 45.3472C12.7616 45.3632 12.7441 45.384 12.732 45.4078C12.7199 45.4317 12.7135 45.458 12.7134 45.4847V46.8148C12.7134 46.8293 12.7105 46.8437 12.7049 46.857C12.6993 46.8704 12.6912 46.8826 12.6808 46.8929C12.6705 46.9031 12.6583 46.9112 12.6448 46.9168C12.6313 46.9223 12.6168 46.9252 12.6022 46.9252H12.3358C12.3068 46.9252 12.279 46.9139 12.2586 46.894C12.2381 46.874 12.2266 46.8469 12.2266 46.8186V43.4696C12.2266 43.4429 12.2373 43.4172 12.2563 43.3983C12.2754 43.3794 12.3012 43.3688 12.3281 43.3688C13.0718 43.365 13.7944 43.2318 14.1758 43.8978C14.4441 44.3671 14.3317 44.782 13.8385 45.1422C13.825 45.1524 13.8159 45.1674 13.8131 45.1839C13.8103 45.2005 13.8138 45.2176 13.8231 45.2317L14.954 46.8643C14.961 46.8741 14.9647 46.8857 14.9647 46.8977C14.9646 46.9096 14.9608 46.9213 14.9538 46.9312C14.9467 46.9411 14.9367 46.9487 14.9251 46.9531C14.9135 46.9575 14.9009 46.9583 14.8888 46.9556ZM12.7153 43.8331L12.7076 44.8606C12.7076 44.8749 12.7132 44.8887 12.7232 44.899C12.7333 44.9093 12.7469 44.9153 12.7613 44.9158L13.0795 44.9177C13.1715 44.9186 13.2627 44.9053 13.348 44.8785C13.4332 44.8517 13.5108 44.812 13.5763 44.7616C13.6419 44.7112 13.694 44.6512 13.7298 44.5849C13.7655 44.5186 13.7842 44.4474 13.7848 44.3754V44.3335C13.786 44.1884 13.7136 44.0485 13.5835 43.9447C13.4534 43.8409 13.2763 43.7816 13.091 43.7798L12.7728 43.7779C12.7654 43.7776 12.7579 43.7789 12.751 43.7815C12.744 43.7842 12.7376 43.7882 12.7323 43.7934C12.7269 43.7985 12.7226 43.8047 12.7197 43.8115C12.7168 43.8183 12.7153 43.8257 12.7153 43.8331Z" fill="#011428" fill-opacity="0.5"/>
<path d="M30.8566 46.4822C31.5102 46.4822 31.8647 46.1968 31.8724 45.5232C31.8826 44.6504 31.8807 43.9572 31.8667 43.4434C31.8664 43.4343 31.8681 43.4251 31.8715 43.4166C31.875 43.4081 31.8801 43.4003 31.8867 43.3937C31.8934 43.3872 31.9013 43.382 31.91 43.3784C31.9187 43.3748 31.9281 43.373 31.9376 43.373H32.3305C32.3503 43.373 32.3693 43.3808 32.3834 43.3947C32.3974 43.4087 32.4052 43.4275 32.4052 43.4472C32.4001 44.7158 32.4001 45.3919 32.4052 45.4756C32.4608 46.4213 31.7421 46.9808 30.8566 46.9808C29.9692 46.9808 29.2504 46.4194 29.3079 45.4737C29.313 45.39 29.313 44.7139 29.3079 43.4453C29.3079 43.4356 29.3098 43.4259 29.3136 43.4169C29.3174 43.4079 29.3229 43.3997 29.3298 43.3928C29.3367 43.3859 29.345 43.3805 29.3541 43.3767C29.3631 43.373 29.3728 43.3711 29.3827 43.3711L29.7756 43.373C29.7851 43.373 29.7944 43.3748 29.8032 43.3784C29.8119 43.382 29.8198 43.3872 29.8264 43.3937C29.833 43.4003 29.8382 43.4081 29.8417 43.4166C29.8451 43.4251 29.8468 43.4343 29.8465 43.4434C29.8324 43.9572 29.8299 44.6498 29.8388 45.5213C29.8465 46.1968 30.2011 46.4822 30.8566 46.4822Z" fill="#011428" fill-opacity="0.5"/>
<path d="M38.7225 46.8633C38.7225 46.8829 38.7147 46.9018 38.7006 46.9157C38.6866 46.9296 38.6676 46.9375 38.6478 46.9375H38.2951C38.2707 46.9375 38.2473 46.9278 38.2301 46.9107C38.2128 46.8936 38.2031 46.8704 38.2031 46.8461V43.4591C38.2031 43.4367 38.2119 43.4152 38.2277 43.3992C38.2435 43.3832 38.2649 43.374 38.2875 43.3735C38.6325 43.3601 39.0484 43.383 39.4298 43.3716C39.8361 43.3576 40.1498 43.5149 40.3709 43.8435C40.4062 43.8949 40.4304 43.9525 40.4418 44.0128C40.6194 44.883 40.2495 45.3296 39.332 45.3524C39.2349 45.3549 39.0656 45.3638 38.8241 45.379C38.7965 45.381 38.7706 45.3932 38.7518 45.4134C38.7329 45.4335 38.7225 45.46 38.7225 45.4875V46.8633ZM38.7283 43.8663L38.7245 44.8405C38.7245 44.8604 38.7323 44.8795 38.7462 44.8937C38.7602 44.9079 38.7792 44.9162 38.7992 44.9167L39.3665 44.9205C39.4461 44.921 39.525 44.9074 39.5987 44.8804C39.6724 44.8534 39.7394 44.8136 39.796 44.7633C39.8526 44.7129 39.8976 44.653 39.9285 44.5869C39.9594 44.5208 39.9756 44.4499 39.976 44.3782V44.3439C39.977 44.1991 39.9141 44.0598 39.8013 43.9567C39.6884 43.8536 39.5348 43.795 39.3742 43.794L38.8069 43.7921C38.7968 43.7918 38.7868 43.7935 38.7774 43.7971C38.768 43.8007 38.7594 43.8061 38.7521 43.813C38.7448 43.8199 38.7389 43.8282 38.7349 43.8373C38.7308 43.8464 38.7285 43.8563 38.7283 43.8663Z" fill="#011428" fill-opacity="0.5"/>
</g>
<defs>
<clipPath id="clip0_353_4226">
<rect width="46" height="47" fill="white"/>
</clipPath>
</defs>
</svg>
