<svg width="91" height="32" viewBox="0 0 91 32" fill="none" xmlns="http://www.w3.org/2000/svg">
<g clip-path="url(#clip0_353_4214)">
<path d="M14.7031 10.0817V0.177705C14.7033 0.166217 14.7061 0.154924 14.7114 0.14474C14.7166 0.134557 14.7242 0.125771 14.7335 0.119093C14.7428 0.112415 14.7535 0.108033 14.7647 0.106303C14.776 0.104573 14.7875 0.105542 14.7983 0.109134L29.3526 4.96856C29.367 4.97333 29.3795 4.9825 29.3884 4.99479C29.3974 5.00708 29.4023 5.02189 29.4025 5.03713V14.9411C29.4023 14.9526 29.3995 14.9639 29.3942 14.9741C29.3889 14.9843 29.3814 14.9931 29.3721 14.9997C29.3628 15.0064 29.3521 15.0108 29.3409 15.0125C29.3296 15.0143 29.3181 15.0133 29.3073 15.0097L14.753 10.1503C14.7386 10.1455 14.7261 10.1363 14.7172 10.124C14.7082 10.1118 14.7033 10.097 14.7031 10.0817Z" fill="#011428" fill-opacity="0.5"/>
<path d="M42.5042 13.6126C43.9942 13.6126 45.0814 13.608 45.7659 13.5989C45.781 13.5989 45.7954 13.5926 45.806 13.5815C45.8166 13.5703 45.8226 13.5552 45.8226 13.5395V5.41374C45.8226 5.38585 45.8336 5.35911 45.8531 5.33939C45.8727 5.31967 45.8992 5.30859 45.9269 5.30859H49.889C49.9076 5.30859 49.9255 5.31606 49.9387 5.32935C49.9519 5.34264 49.9593 5.36066 49.9593 5.37945V25.7246C49.9593 25.7604 49.9454 25.7947 49.9208 25.82C49.8961 25.8452 49.8627 25.8595 49.8278 25.8595H45.9631C45.9453 25.8595 45.9276 25.8559 45.9111 25.849C45.8946 25.8421 45.8796 25.832 45.867 25.8193C45.8543 25.8065 45.8443 25.7914 45.8375 25.7748C45.8307 25.7582 45.8271 25.7403 45.8271 25.7223L45.8226 17.4709C45.8226 17.4523 45.8189 17.4339 45.8115 17.4168C45.8041 17.3997 45.7933 17.3842 45.7798 17.3714C45.7662 17.3586 45.7501 17.3486 45.7326 17.3421C45.715 17.3357 45.6963 17.3328 45.6775 17.3337C45.5748 17.3307 44.517 17.3292 42.5042 17.3292C40.4914 17.3292 39.4329 17.3307 39.3286 17.3337C39.3099 17.3328 39.2912 17.3357 39.2736 17.3421C39.256 17.3486 39.2399 17.3586 39.2264 17.3714C39.2128 17.3842 39.202 17.3997 39.1946 17.4168C39.1873 17.4339 39.1835 17.4523 39.1835 17.4709L39.1813 25.7223C39.1813 25.7587 39.1669 25.7936 39.1414 25.8193C39.1159 25.845 39.0813 25.8595 39.0453 25.8595H35.1806C35.1457 25.8595 35.1123 25.8452 35.0876 25.82C35.063 25.7947 35.0491 25.7604 35.0491 25.7246L35.0469 5.37945C35.0469 5.36066 35.0543 5.34264 35.0675 5.32935C35.0806 5.31606 35.0985 5.30859 35.1171 5.30859H39.0793C39.1069 5.30859 39.1334 5.31967 39.153 5.33939C39.1726 5.35911 39.1835 5.38585 39.1835 5.41374V13.5395C39.1835 13.5475 39.1851 13.5554 39.1881 13.5628C39.1911 13.5701 39.1954 13.5768 39.2009 13.5823C39.2064 13.5879 39.213 13.5922 39.2201 13.5951C39.2272 13.5979 39.2348 13.5992 39.2425 13.5989C39.9255 13.608 41.0127 13.6126 42.5042 13.6126Z" fill="#011428" fill-opacity="0.5"/>
<path d="M60.8539 5.30859C61.3782 5.30859 61.892 5.31545 62.3952 5.32917C62.4192 5.33002 62.4424 5.33809 62.4617 5.35235C62.4811 5.36661 62.4959 5.3864 62.504 5.40917L69.8843 25.7977C69.8864 25.8043 69.8871 25.8113 69.8862 25.8182C69.8854 25.8251 69.8829 25.8316 69.8791 25.8372C69.8754 25.8428 69.8704 25.8473 69.8645 25.8504C69.8587 25.8535 69.8523 25.855 69.8457 25.8549H65.7385C65.7074 25.8549 65.6769 25.8453 65.6514 25.8273C65.6259 25.8093 65.6064 25.7838 65.5957 25.7543L64.3649 22.3509C64.355 22.3226 64.3366 22.2981 64.3122 22.2809C64.2878 22.2637 64.2587 22.2546 64.2289 22.2549C64.0612 22.2564 62.9392 22.2579 60.8629 22.2595C58.7882 22.2595 57.6662 22.2595 57.4969 22.2595C57.4672 22.2592 57.4381 22.2683 57.4137 22.2855C57.3893 22.3027 57.3708 22.3272 57.3609 22.3555L56.1347 25.7589C56.124 25.7884 56.1045 25.8139 56.079 25.8319C56.0534 25.8499 56.023 25.8595 55.9919 25.8595L51.8847 25.864C51.8781 25.8642 51.8717 25.8626 51.8658 25.8595C51.86 25.8565 51.855 25.8519 51.8512 25.8463C51.8475 25.8407 51.845 25.8342 51.8441 25.8274C51.8432 25.8205 51.8439 25.8135 51.8461 25.8069L59.2037 5.41145C59.2119 5.38868 59.2266 5.36889 59.246 5.35463C59.2654 5.34038 59.2885 5.3323 59.3125 5.33145C59.8142 5.31621 60.328 5.30859 60.8539 5.30859ZM58.5781 18.5955C58.5746 18.6064 58.5736 18.618 58.5753 18.6293C58.577 18.6407 58.5814 18.6515 58.588 18.6608C58.5946 18.6702 58.6033 18.6778 58.6134 18.6831C58.6235 18.6885 58.6347 18.6913 58.6461 18.6915L63.1817 18.7166C63.1933 18.7168 63.2048 18.7142 63.2152 18.7091C63.2256 18.7039 63.2346 18.6963 63.2414 18.6869C63.2483 18.6775 63.2529 18.6666 63.2547 18.655C63.2565 18.6435 63.2556 18.6317 63.252 18.6206L61.0171 11.9143C61.0119 11.9003 61.0026 11.8882 60.9905 11.8797C60.9783 11.8712 60.9639 11.8666 60.9491 11.8666C60.9342 11.8666 60.9198 11.8712 60.9076 11.8797C60.8955 11.8882 60.8862 11.9003 60.8811 11.9143L58.5781 18.5955Z" fill="#011428" fill-opacity="0.5"/>
<path d="M76.0595 18.1504C76.0958 18.1504 76.1184 18.1352 76.1275 18.1047C78.4894 10.3805 79.7829 6.14659 80.008 5.40297C80.0158 5.37654 80.0318 5.35335 80.0534 5.33688C80.0751 5.3204 80.1013 5.31151 80.1282 5.31154H84.2512C84.2618 5.31176 84.2722 5.31446 84.2815 5.31942C84.2908 5.32438 84.2989 5.33146 84.3051 5.34011C84.3112 5.34876 84.3153 5.35874 84.317 5.36925C84.3187 5.37977 84.3179 5.39053 84.3147 5.40069L77.6575 25.6795C77.6408 25.7302 77.6093 25.7745 77.5671 25.8063C77.525 25.8382 77.4742 25.8562 77.4218 25.8578C77.3825 25.8594 76.9276 25.8594 76.0572 25.8578C75.1868 25.8578 74.732 25.8571 74.6927 25.8555C74.6402 25.8539 74.5895 25.8359 74.5473 25.8041C74.5052 25.7722 74.4736 25.7279 74.457 25.6773L67.8156 5.39383C67.8125 5.38367 67.8117 5.37291 67.8134 5.3624C67.815 5.35188 67.8191 5.3419 67.8253 5.33325C67.8314 5.3246 67.8395 5.31752 67.8488 5.31256C67.8582 5.3076 67.8685 5.30491 67.8791 5.30469L72.0022 5.30926C72.0291 5.30923 72.0553 5.31811 72.0769 5.33459C72.0986 5.35107 72.1145 5.37425 72.1223 5.40069C72.3459 6.14431 73.6357 10.379 75.9915 18.1047C76.0006 18.1352 76.0232 18.1504 76.0595 18.1504Z" fill="#011428" fill-opacity="0.5"/>
<path d="M90.6677 5.31641V25.8398L86.6625 25.8376C86.6318 25.8376 86.6024 25.825 86.5807 25.8027C86.559 25.7804 86.5469 25.7502 86.5469 25.7187V5.43983C86.5469 5.40831 86.5593 5.37808 86.5814 5.35579C86.6035 5.3335 86.6335 5.32098 86.6647 5.32098L90.6677 5.31641Z" fill="#011428" fill-opacity="0.5"/>
<path d="M14.6857 10.9638L14.6699 11.0186L0.2312 15.9992L0 15.9809V5.9375L14.6857 10.9638Z" fill="#011428" fill-opacity="0.5"/>
<path d="M29.1967 16.0003L14.8577 21.0288C14.7505 21.0349 14.6893 21.0189 14.6741 20.9808L14.6719 11.0197L14.6877 10.9648L29.0833 15.8723C29.1013 15.8781 29.1179 15.8875 29.1323 15.9001C29.1467 15.9126 29.1586 15.928 29.1672 15.9454C29.1778 15.9637 29.1876 15.982 29.1967 16.0003Z" fill="#011428" fill-opacity="0.5"/>
<path d="M14.673 11.0195L14.6753 20.9807L0.234375 16.0001L14.673 11.0195Z" fill="#011428" fill-opacity="0.5"/>
<path d="M14.8594 21.0297L29.1983 16.0011C29.2225 15.9996 29.2452 15.9996 29.2663 16.0011C29.3052 16.004 29.3416 16.0219 29.3681 16.0512C29.3946 16.0805 29.4093 16.1189 29.4091 16.1589V26.0011C29.4092 26.0117 29.4061 26.0219 29.4004 26.0302C29.3946 26.0385 29.3865 26.0443 29.3774 26.0469C29.2489 26.0819 29.1636 26.0629 29.1212 25.9897C29.1095 25.9705 29.0912 25.9553 29.0691 25.9463L14.9319 21.112C14.9259 21.109 14.9205 21.1051 14.916 21.1006C14.8964 21.0762 14.8775 21.0526 14.8594 21.0297Z" fill="#011428" fill-opacity="0.5"/>
<path d="M0 26.9627V16.9102L14.5973 21.9044C14.6283 21.915 14.6553 21.9352 14.6744 21.9622C14.6935 21.9893 14.7038 22.0218 14.7039 22.0553V31.8473C14.704 31.8644 14.7001 31.8814 14.6925 31.8967C14.6848 31.912 14.6737 31.9252 14.6599 31.9353C14.6462 31.9454 14.6302 31.952 14.6134 31.9545C14.5966 31.9571 14.5794 31.9556 14.5633 31.9502L0 26.9627Z" fill="#011428" fill-opacity="0.5"/>
</g>
<defs>
<clipPath id="clip0_353_4214">
<rect width="90.6667" height="32" fill="white"/>
</clipPath>
</defs>
</svg>
