<svg width="72" height="44" viewBox="0 0 72 44" fill="none" xmlns="http://www.w3.org/2000/svg">
<path fill-rule="evenodd" clip-rule="evenodd" d="M20.575 2.6803C28.1108 2.6803 34.6612 7.03317 37.8433 13.3531L40.527 12.7473C37.0219 5.23107 29.3905 0 20.575 0C11.7923 0 4.18463 5.19258 0.661948 12.6639H3.67143C6.97199 6.71923 13.3163 2.6803 20.575 2.6803ZM37.6295 31.0587C34.3739 37.1547 27.9458 41.3197 20.575 41.3197C13.015 41.3197 6.4466 36.9379 3.27596 30.5852L0.59375 31.1906C4.08595 38.74 11.7352 44 20.575 44C29.4663 44 37.1544 38.679 40.6177 31.0587H37.6295Z" fill="#011428" fill-opacity="0.5"/>
<path fill-rule="evenodd" clip-rule="evenodd" d="M3.63203 26.1858L4.64776 21.7308H4.65652L7.27891 26.1858H11.41L8.48629 21.2195L13.0719 16.7367H8.67183L4.97465 20.3512L4.96246 20.3508L5.78656 16.7371H2.15453L0 26.1865H3.63203V26.1858ZM23.4853 26.1858L21.4615 23.0247C24.4237 22.1499 24.9228 16.7363 21.6763 16.7363H13.6042L11.4497 26.1858H15.0817L16.1134 21.6599L19.0117 26.1858H23.4853ZM16.1763 21.413L16.5581 19.35L18.6208 19.3595C19.9977 19.366 19.7519 21.5559 18.6208 21.5106L16.1763 21.413ZM47.2758 26.1858C48.6828 26.1858 50.1287 24.8134 50.1531 23.0967C50.1774 21.3799 48.9026 20.3367 47.3817 20.3367H44.7917C44.6035 20.3367 44.2507 20.1779 44.2473 19.867C44.2438 19.5561 44.509 19.297 44.8085 19.297H52.4181L50.8472 26.1862H71.0145L71.2785 23.6929H65.3273L66.9134 16.7367H63.2818L61.6957 23.6929H55.0473L55.3331 22.4402H60.4178L60.9398 20.3303H55.8143L56.0463 19.3115H61.1509L61.746 16.7371H42.6993C41.5391 16.7371 40.3767 18.0896 40.3417 19.2974C40.3066 20.5051 41.2328 22.3621 42.5354 22.3621H45.889C46.2913 22.3621 46.4566 22.5503 46.4551 22.9412C46.4536 23.3314 46.0707 23.483 45.727 23.483H37.9509L39.489 16.7375H35.8574L34.3197 23.483H27.7635L28.0012 22.441H33.1896L33.712 20.331H28.4824L28.7148 19.3122H33.9231L34.5185 16.7379H25.6696L23.515 26.1873H47.2758V26.1858Z" fill="#011428" fill-opacity="0.5"/>
</svg>
