<svg width="118" height="30" viewBox="0 0 118 30" fill="none" xmlns="http://www.w3.org/2000/svg">
<g clip-path="url(#clip0_353_4241)">
<path d="M67.7439 6.28536C67.7514 7.14041 67.5858 7.9886 67.2564 8.78148C66.927 9.57437 66.4404 10.2964 65.8243 10.9064C65.2081 11.5164 64.4746 12.0024 63.6656 12.3367C62.8565 12.671 61.9878 12.8469 61.1089 12.8545C60.2301 12.8622 59.3584 12.7013 58.5436 12.3811C57.7288 12.061 56.9869 11.5878 56.3601 10.9885C55.7334 10.3893 55.2342 9.6758 54.8909 8.88875C54.5477 8.10171 54.3671 7.25653 54.3596 6.40147C54.3521 5.54642 54.5178 4.69824 54.8471 3.90535C55.1765 3.11247 55.6632 2.39041 56.2793 1.7804C56.8954 1.1704 57.6289 0.684387 58.438 0.35013C59.247 0.0158729 60.1158 -0.160089 60.9946 -0.16771C61.8734 -0.175335 62.7451 -0.0144696 63.5599 0.305701C64.3747 0.625872 65.1167 1.09908 65.7434 1.6983C66.3701 2.29752 66.8694 3.01103 67.2126 3.79808C67.5559 4.58513 67.7364 5.43031 67.7439 6.28536ZM64.0464 6.34682C64.0464 5.5566 63.7305 4.79874 63.1683 4.23997C62.606 3.68119 61.8435 3.36728 61.0483 3.36728C60.2532 3.36728 59.4906 3.68119 58.9284 4.23997C58.3662 4.79874 58.0503 5.5566 58.0503 6.34682C58.0503 7.13705 58.3662 7.89491 58.9284 8.45368C59.4906 9.01245 60.2532 9.32637 61.0483 9.32637C61.8435 9.32637 62.606 9.01245 63.1683 8.45368C63.7305 7.89491 64.0464 7.13705 64.0464 6.34682Z" fill="#011428" fill-opacity="0.5"/>
<path d="M15.236 -0.00585938C15.9815 -0.00585938 16.7362 0.375959 17.5 1.1396C20.2144 3.84641 21.63 5.25778 21.7466 5.37369C21.7663 5.39323 21.7797 5.41815 21.7851 5.44527C21.7905 5.47239 21.7878 5.5005 21.7771 5.52605C21.7665 5.5516 21.7484 5.57343 21.7253 5.58879C21.7022 5.60415 21.6749 5.61234 21.6471 5.61233H18.0831C18.0367 5.61233 17.9922 5.631 17.9594 5.66425C17.9266 5.69749 17.9082 5.74258 17.9082 5.7896V11.6703C17.9082 11.6916 17.904 11.7127 17.8958 11.7324C17.8877 11.7521 17.8758 11.7699 17.8608 11.7848C17.8457 11.7998 17.8279 11.8115 17.8084 11.8193C17.7888 11.8272 17.768 11.831 17.747 11.8305C16.5212 11.8419 15.6842 11.8476 15.236 11.8476C14.7855 11.8476 13.9474 11.8419 12.7217 11.8305C12.6798 11.8305 12.6397 11.8136 12.6101 11.7836C12.5805 11.7535 12.5639 11.7128 12.5639 11.6703V5.7896C12.5639 5.74258 12.5454 5.69749 12.5126 5.66425C12.4798 5.631 12.4353 5.61233 12.3889 5.61233L8.82492 5.60891C8.79778 5.6083 8.77141 5.59989 8.74897 5.5847C8.72654 5.56952 8.709 5.5482 8.69849 5.52333C8.68797 5.49846 8.68492 5.4711 8.6897 5.44455C8.69448 5.418 8.7069 5.39338 8.72544 5.37369C8.84207 5.2555 10.2576 3.84301 12.9721 1.13619C13.7382 0.374825 14.4928 -0.00585938 15.236 -0.00585938Z" fill="#011428" fill-opacity="0.5"/>
<path d="M49.0554 9.55529V0.306425C49.0554 0.234998 49.0843 0.166497 49.1358 0.11599C49.1873 0.0654834 49.2571 0.0371094 49.3298 0.0371094H52.1804C52.2477 0.0371094 52.3123 0.0640457 52.3599 0.111995C52.4075 0.159945 52.4342 0.22498 52.4342 0.292791V12.4769C52.4342 12.5212 52.4165 12.5637 52.385 12.595C52.3535 12.6263 52.3107 12.6439 52.2661 12.6439H47.1173C47.0335 12.6439 46.9517 12.6176 46.8834 12.5687C46.8151 12.5198 46.7638 12.4507 46.7366 12.3712L43.6391 3.20075C43.6296 3.17356 43.6108 3.15056 43.586 3.13575C43.5611 3.12095 43.5319 3.11529 43.5033 3.11975C43.4747 3.12422 43.4485 3.13853 43.4295 3.16019C43.4104 3.18185 43.3996 3.20948 43.399 3.23825V12.4701C43.399 12.4924 43.3945 12.5146 43.3857 12.5353C43.3769 12.556 43.364 12.5748 43.3477 12.5906C43.3315 12.6064 43.3122 12.619 43.291 12.6275C43.2698 12.6361 43.247 12.6405 43.224 12.6405H40.2054C40.1445 12.6405 40.086 12.6168 40.0429 12.5746C39.9998 12.5324 39.9756 12.4752 39.9756 12.4155V3.51438C39.9756 3.45923 39.9536 3.40633 39.9143 3.36733C39.8751 3.32834 39.8218 3.30643 39.7664 3.30643H38.528C38.4398 3.30643 38.3552 3.27159 38.2928 3.20957C38.2304 3.14756 38.1953 3.06345 38.1953 2.97574V0.446199C38.1953 0.33951 38.2383 0.237192 38.3149 0.161751C38.3914 0.0863104 38.4952 0.043929 38.6035 0.043929H44.7985C45.0394 0.0437909 45.2743 0.119082 45.47 0.259166C45.6657 0.399251 45.8124 0.597045 45.8893 0.824609L48.8496 9.58938C48.8583 9.61229 48.8747 9.6315 48.896 9.64372C48.9174 9.65595 48.9423 9.66043 48.9666 9.6564C48.9909 9.65238 49.0131 9.6401 49.0292 9.62166C49.0454 9.60322 49.0547 9.57976 49.0554 9.55529Z" fill="#011428" fill-opacity="0.5"/>
<path d="M75.0088 9.37849C75.05 9.37849 75.0877 9.36372 75.122 9.33418C75.126 9.3315 75.1295 9.32804 75.1323 9.32395L78.3053 0.25236C78.3261 0.190914 78.3657 0.137481 78.4186 0.0995707C78.4715 0.0616605 78.5351 0.0411746 78.6003 0.0409925H81.9654C81.9967 0.040606 82.0277 0.0478517 82.0555 0.0620913C82.0834 0.0763308 82.1074 0.0971347 82.1253 0.122688C82.1432 0.148241 82.1546 0.177763 82.1584 0.208685C82.1622 0.239607 82.1584 0.270989 82.1472 0.300087L77.6879 12.416C77.6651 12.4771 77.6257 12.5306 77.5741 12.5704C77.5226 12.6102 77.4609 12.6346 77.3963 12.641C77.3803 12.6433 76.5833 12.6433 75.0054 12.641C73.4275 12.641 72.6305 12.6399 72.6145 12.6376C72.5495 12.6309 72.4876 12.606 72.436 12.5655C72.3844 12.5251 72.3452 12.4709 72.323 12.4092L67.8877 0.286447C67.8765 0.25735 67.8726 0.225973 67.8764 0.195051C67.8802 0.164129 67.8916 0.134601 67.9095 0.109048C67.9275 0.0834954 67.9514 0.0626915 67.9793 0.048452C68.0072 0.0342125 68.0381 0.0269719 68.0695 0.0273585L71.4345 0.0341781C71.4998 0.0343601 71.5633 0.0548409 71.6162 0.092751C71.6691 0.130661 71.7087 0.184094 71.7295 0.24554L74.8853 9.32395C74.8871 9.32773 74.8894 9.33118 74.8922 9.33418C74.9288 9.36372 74.9677 9.37849 75.0088 9.37849Z" fill="#011428" fill-opacity="0.5"/>
<path d="M88.4039 10.3598C87.1485 10.3553 86.3767 10.353 86.0885 10.353C86.0201 10.3524 85.953 10.3731 85.8966 10.4122C85.8401 10.4512 85.7969 10.5067 85.773 10.5712L85.0801 12.4564C85.0611 12.5082 85.0266 12.553 84.9812 12.5847C84.9358 12.6164 84.8817 12.6335 84.8262 12.6337H81.4612C81.4293 12.6335 81.3979 12.6257 81.3697 12.6109C81.3415 12.5962 81.3174 12.5749 81.2994 12.549C81.2815 12.5232 81.2703 12.4934 81.2668 12.4624C81.2633 12.4314 81.2676 12.4001 81.2794 12.3712L86.0748 0.23139C86.0917 0.187944 86.12 0.149818 86.1568 0.121022C86.1937 0.0922259 86.2376 0.0738254 86.2841 0.0677549C86.4007 0.0518458 87.1165 0.0450284 88.4314 0.0473012C89.744 0.0518466 90.4598 0.0620727 90.5787 0.0779817C90.6249 0.0849272 90.6684 0.104102 90.7046 0.133491C90.7409 0.16288 90.7684 0.201403 90.7845 0.245029L95.5148 12.4087C95.5266 12.4376 95.5309 12.4689 95.5274 12.4999C95.5239 12.5309 95.5127 12.5607 95.4948 12.5866C95.4768 12.6125 95.4527 12.6337 95.4245 12.6484C95.3963 12.6632 95.3649 12.671 95.333 12.6712L91.968 12.6507C91.9125 12.6505 91.8584 12.6334 91.813 12.6017C91.7676 12.57 91.7331 12.5253 91.7141 12.4734L91.0315 10.5848C91.0077 10.5209 90.9651 10.4658 90.9093 10.4268C90.8535 10.3878 90.7872 10.3668 90.7194 10.3666C90.4312 10.3643 89.6594 10.3621 88.4039 10.3598ZM86.8844 7.31889C86.8762 7.34238 86.8738 7.36746 86.8773 7.39206C86.8808 7.41666 86.8901 7.44008 86.9046 7.46039C86.919 7.4807 86.938 7.49731 86.9601 7.50887C86.9823 7.52042 87.0069 7.52659 87.0319 7.52685H89.6937C89.7187 7.52659 89.7433 7.52042 89.7654 7.50887C89.7876 7.49731 89.8066 7.4807 89.821 7.46039C89.8354 7.44008 89.8448 7.41666 89.8483 7.39206C89.8518 7.36746 89.8494 7.34238 89.8412 7.31889L88.5103 3.50753C88.4989 3.4778 88.4787 3.4522 88.4524 3.43414C88.426 3.41608 88.3948 3.40642 88.3628 3.40642C88.3308 3.40642 88.2995 3.41608 88.2732 3.43414C88.2468 3.4522 88.2267 3.4778 88.2153 3.50753L86.8844 7.31889Z" fill="#011428" fill-opacity="0.5"/>
<path d="M5.87389 14.9346C5.87389 17.8028 5.8636 19.9289 5.84302 21.313C5.84219 21.3371 5.83443 21.3605 5.82065 21.3803C5.80687 21.4002 5.78764 21.4157 5.76526 21.425C5.74287 21.4344 5.71826 21.4371 5.69435 21.433C5.67044 21.4288 5.64823 21.4179 5.63034 21.4016C3.82833 19.638 2.23899 18.0528 0.86232 16.646C0.407243 16.1823 0.179705 15.6119 0.179705 14.9346C0.177418 14.2596 0.403814 13.6891 0.858892 13.2232C2.23556 11.8164 3.82376 10.23 5.62348 8.46413C5.64123 8.44671 5.66374 8.43487 5.68822 8.4301C5.71269 8.42532 5.73804 8.42782 5.76109 8.43728C5.78415 8.44673 5.80389 8.46273 5.81785 8.48327C5.83181 8.50381 5.83937 8.52798 5.83959 8.55277C5.86017 9.93686 5.8716 12.0641 5.87389 14.9346Z" fill="#011428" fill-opacity="0.5"/>
<path d="M30.2961 14.9417C30.2938 15.6167 30.0651 16.186 29.61 16.6496C28.2334 18.0519 26.644 19.6314 24.842 21.3883C24.8241 21.4046 24.8019 21.4154 24.778 21.4196C24.7541 21.4237 24.7295 21.421 24.7071 21.4117C24.6847 21.4023 24.6655 21.3868 24.6517 21.367C24.6379 21.3471 24.6302 21.3237 24.6293 21.2996C24.611 19.9178 24.6053 17.7951 24.6122 14.9314C24.6168 12.0678 24.6305 9.94507 24.6533 8.56326C24.6542 8.53915 24.6619 8.51578 24.6757 8.49592C24.6895 8.47606 24.7087 8.46055 24.7311 8.45122C24.7535 8.44189 24.7781 8.43914 24.802 8.44329C24.8259 8.44743 24.8481 8.45831 24.866 8.47462C26.6612 10.2405 28.2448 11.8258 29.6169 13.2303C30.0697 13.6962 30.2961 14.2667 30.2961 14.9417Z" fill="#011428" fill-opacity="0.5"/>
<path d="M48.1262 29.1105C48.1151 29.079 48.0969 29.0506 48.0731 29.0272C48.0492 29.0038 48.0202 28.9862 47.9885 28.9757C47.9567 28.9652 47.9229 28.962 47.8897 28.9664C47.8565 28.9709 47.8247 28.9828 47.7969 29.0014C45.8485 30.3207 42.5521 29.748 40.861 28.5275C38.9515 27.1525 38.0893 25.2582 38.2746 22.8446C38.6107 18.4298 42.3017 16.2139 46.5894 16.8718C48.3526 17.1445 50.6097 18.498 50.9767 20.4207C50.9812 20.4448 50.9804 20.4695 50.9742 20.4932C50.968 20.5169 50.9567 20.539 50.941 20.5579C50.9253 20.5767 50.9056 20.5919 50.8833 20.6024C50.861 20.6129 50.8367 20.6183 50.8121 20.6184H47.3064C47.1454 20.6184 46.9873 20.5895 46.8399 20.5332C46.3436 20.3446 45.908 20.2173 45.5329 20.1514C40.8884 19.34 40.5111 26.5877 45.1282 26.6491C46.3059 26.665 47.2378 26.2059 47.9238 25.2718C47.9407 25.2479 47.9507 25.2199 47.9527 25.1908C47.9547 25.1617 47.9487 25.1325 47.9353 25.1066C47.9218 25.0806 47.9016 25.0588 47.8766 25.0434C47.8516 25.0281 47.8228 25.0198 47.7935 25.0196H44.9464C44.9076 25.0196 44.8693 25.012 44.8335 24.9972C44.7977 24.9825 44.7652 24.9609 44.7378 24.9337C44.7104 24.9065 44.6887 24.8741 44.6738 24.8386C44.659 24.803 44.6514 24.7649 44.6514 24.7264V22.3809C44.6514 22.3095 44.6803 22.241 44.7317 22.1905C44.7832 22.14 44.853 22.1116 44.9258 22.1116H51.0659C51.1096 22.1116 51.1515 22.1285 51.1823 22.1585C51.2132 22.1886 51.2306 22.2293 51.2306 22.2718V29.3184C51.2306 29.3898 51.202 29.4583 51.1512 29.5089C51.1004 29.5594 51.0314 29.5877 50.9596 29.5877H48.5413C48.4671 29.5878 48.3947 29.5644 48.3344 29.521C48.2741 29.4776 48.2288 29.4162 48.2051 29.3457L48.1262 29.1105Z" fill="#011428" fill-opacity="0.5"/>
<path d="M64.7266 23.2249C64.7281 22.3684 64.9025 21.5207 65.2399 20.73C65.5772 19.9394 66.0709 19.2213 66.6928 18.6168C67.3147 18.0123 68.0525 17.5332 68.8642 17.2068C69.6759 16.8805 70.5456 16.7133 71.4235 16.7149C72.3015 16.7164 73.1706 16.8866 73.9811 17.2157C74.7917 17.5449 75.5278 18.0265 76.1476 18.6332C76.7673 19.2398 77.2585 19.9596 77.5931 20.7514C77.9277 21.5433 78.0991 22.3916 78.0976 23.248C78.0961 24.1045 77.9217 24.9522 77.5843 25.7429C77.247 26.5335 76.7532 27.2516 76.1314 27.8561C75.5095 28.4606 74.7716 28.9397 73.9599 29.266C73.1482 29.5924 72.2786 29.7596 71.4006 29.758C70.5227 29.7565 69.6536 29.5863 68.8431 29.2572C68.0325 28.928 67.2964 28.4464 66.6766 27.8397C66.0569 27.233 65.5657 26.5133 65.2311 25.7214C64.8965 24.9296 64.7251 24.0813 64.7266 23.2249ZM71.2851 20.225C70.4979 20.2551 69.7551 20.6019 69.2203 21.1892C68.6855 21.7765 68.4025 22.5561 68.4334 23.3566C68.4487 23.7529 68.5407 24.1425 68.704 24.503C68.8673 24.8635 69.0989 25.1879 69.3853 25.4576C69.6718 25.7274 70.0076 25.9372 70.3736 26.0751C70.7396 26.2131 71.1286 26.2764 71.5185 26.2615C72.3057 26.2314 73.0485 25.8846 73.5833 25.2974C74.1181 24.7101 74.4011 23.9304 74.3702 23.1299C74.3549 22.7336 74.2629 22.344 74.0996 21.9835C73.9363 21.623 73.7048 21.2987 73.4183 21.0289C73.1318 20.7592 72.796 20.5493 72.43 20.4114C72.064 20.2735 71.6749 20.2101 71.2851 20.225Z" fill="#011428" fill-opacity="0.5"/>
<path d="M117.963 26.2V29.3773C117.963 29.427 117.943 29.4747 117.908 29.5099C117.872 29.545 117.824 29.5648 117.774 29.5648H108.032C107.982 29.5648 107.934 29.545 107.899 29.5099C107.864 29.4747 107.844 29.427 107.844 29.3773V17.125C107.844 17.0753 107.864 17.0276 107.899 16.9924C107.934 16.9573 107.982 16.9375 108.032 16.9375H111.298C111.348 16.9375 111.396 16.9573 111.431 16.9924C111.467 17.0276 111.487 17.0753 111.487 17.125V25.825C111.487 25.8747 111.507 25.9224 111.542 25.9576C111.577 25.9928 111.625 26.0125 111.675 26.0125H117.774C117.824 26.0125 117.872 26.0323 117.908 26.0674C117.943 26.1026 117.963 26.1503 117.963 26.2Z" fill="#011428" fill-opacity="0.5"/>
<path d="M57.491 25.8917C57.491 25.9074 57.4941 25.9229 57.5002 25.9374C57.5062 25.9519 57.5151 25.965 57.5262 25.9761C57.5374 25.9872 57.5506 25.996 57.5651 26.002C57.5797 26.008 57.5953 26.011 57.6111 26.011L63.7203 26.0145C63.7777 26.0145 63.8326 26.0371 63.8731 26.0774C63.9137 26.1176 63.9365 26.1723 63.9365 26.2292L63.9502 29.3383C63.9502 29.3935 63.9281 29.4464 63.8889 29.4854C63.8496 29.5244 63.7964 29.5463 63.7409 29.5463L54.1054 29.5599C54.0378 29.559 53.9732 29.5317 53.9257 29.4838C53.8782 29.436 53.8516 29.3714 53.8516 29.3042L53.8619 17.144C53.8619 17.0897 53.8835 17.0377 53.9221 16.9994C53.9607 16.961 54.0131 16.9395 54.0677 16.9395L57.2475 16.9599C57.3124 16.9608 57.3743 16.9874 57.4199 17.034C57.4655 17.0806 57.491 17.1434 57.491 17.2088V25.8917Z" fill="#011428" fill-opacity="0.5"/>
<path d="M80.0781 29.4025V17.1059C80.0781 17.0652 80.0944 17.0262 80.1233 16.9974C80.1523 16.9686 80.1916 16.9525 80.2325 16.9525C84.6529 16.9343 87.205 16.9434 87.8888 16.9797C89.4667 17.065 90.952 17.9888 91.3121 19.7002C91.582 20.9865 91.2092 22.0502 90.1939 22.8911C90.1718 22.9097 90.1541 22.933 90.1422 22.9592C90.1303 22.9854 90.1245 23.0138 90.1251 23.0423C90.1258 23.0709 90.1329 23.0987 90.146 23.1239C90.1591 23.1491 90.1778 23.1709 90.2007 23.1877C93.2056 25.4206 91.3156 29.4297 87.8613 29.5354C87.2736 29.5536 84.733 29.5627 80.2393 29.5627C80.2182 29.5627 80.1972 29.5585 80.1776 29.5505C80.1581 29.5424 80.1403 29.5306 80.1253 29.5157C80.1104 29.5009 80.0985 29.4832 80.0904 29.4638C80.0823 29.4443 80.0781 29.4235 80.0781 29.4025ZM83.5907 20.0445V21.6604C83.5907 21.711 83.6109 21.7596 83.6469 21.7954C83.683 21.8312 83.7318 21.8513 83.7828 21.8513H86.352C86.7059 21.8513 87.0453 21.7597 87.2956 21.5967C87.5458 21.4337 87.6864 21.2126 87.6864 20.982V20.7229C87.6864 20.4924 87.5458 20.2712 87.2956 20.1082C87.0453 19.9452 86.7059 19.8536 86.352 19.8536H83.7828C83.7318 19.8536 83.683 19.8737 83.6469 19.9095C83.6109 19.9453 83.5907 19.9939 83.5907 20.0445ZM83.5941 24.7695L83.5804 26.44C83.5804 26.4915 83.601 26.5409 83.6377 26.5774C83.6743 26.6138 83.7241 26.6343 83.7759 26.6343L86.7568 26.6547C86.9128 26.6558 87.0675 26.632 87.2119 26.5846C87.3564 26.5372 87.4878 26.4672 87.5987 26.3785C87.7096 26.2898 87.7977 26.1843 87.8581 26.0679C87.9184 25.9515 87.9499 25.8266 87.9505 25.7002V25.5638C87.9518 25.3091 87.8283 25.0641 87.6071 24.8826C87.3858 24.701 87.085 24.5978 86.7705 24.5956L83.7896 24.5752C83.764 24.5752 83.7385 24.5802 83.7148 24.59C83.6911 24.5997 83.6695 24.6141 83.6514 24.6321C83.6332 24.6501 83.6188 24.6716 83.609 24.6951C83.5992 24.7187 83.5941 24.744 83.5941 24.7695Z" fill="#011428" fill-opacity="0.5"/>
<path d="M99.343 16.9457C100.658 16.948 101.374 16.9582 101.49 16.9764C101.536 16.9831 101.579 17.0017 101.616 17.0305C101.652 17.0592 101.68 17.0971 101.696 17.1401L106.44 29.3003C106.452 29.3295 106.456 29.3611 106.453 29.3924C106.449 29.4236 106.437 29.4536 106.419 29.4796C106.401 29.5055 106.376 29.5267 106.348 29.5412C106.319 29.5558 106.287 29.5632 106.255 29.5628L102.89 29.5491C102.835 29.548 102.781 29.5301 102.736 29.4978C102.691 29.4655 102.658 29.4204 102.639 29.3685L101.953 27.4798C101.93 27.4159 101.887 27.3608 101.831 27.3218C101.775 27.2828 101.709 27.2618 101.641 27.2616C101.353 27.2616 100.581 27.2605 99.3258 27.2582C98.0704 27.256 97.2986 27.2548 97.0104 27.2548C96.942 27.2543 96.8749 27.275 96.8185 27.314C96.762 27.353 96.7188 27.4086 96.6948 27.473L96.0054 29.3582C95.9864 29.4101 95.9519 29.4548 95.9065 29.4865C95.8611 29.5182 95.807 29.5353 95.7515 29.5355L92.3865 29.5389C92.3543 29.5393 92.3225 29.5319 92.2938 29.5174C92.2652 29.5029 92.2406 29.4817 92.2223 29.4557C92.204 29.4297 92.1924 29.3998 92.1888 29.3685C92.1851 29.3372 92.1894 29.3056 92.2012 29.2764L96.9864 17.1332C97.0028 17.0892 97.0309 17.0503 97.0677 17.0209C97.1046 16.9915 97.1488 16.9726 97.1957 16.9662C97.3123 16.9503 98.0281 16.9435 99.343 16.9457ZM97.7788 24.2446C97.7728 24.262 97.7711 24.2806 97.7737 24.2988C97.7764 24.317 97.7834 24.3343 97.7941 24.3493C97.8048 24.3643 97.819 24.3765 97.8354 24.385C97.8518 24.3934 97.8701 24.3979 97.8886 24.398L100.66 24.4048C100.679 24.4053 100.698 24.4012 100.714 24.393C100.731 24.3847 100.746 24.3726 100.757 24.3575C100.768 24.3424 100.776 24.3249 100.778 24.3064C100.781 24.288 100.779 24.2691 100.773 24.2514L99.391 20.2969C99.3829 20.2744 99.368 20.255 99.3483 20.2412C99.3287 20.2275 99.3053 20.2201 99.2812 20.2201C99.2572 20.2201 99.2338 20.2275 99.2141 20.2412C99.1945 20.255 99.1796 20.2744 99.1715 20.2969L97.7788 24.2446Z" fill="#011428" fill-opacity="0.5"/>
<path d="M15.2408 18.0078C15.6913 18.0078 16.5317 18.0135 17.7621 18.0249C17.8039 18.0249 17.844 18.0417 17.8736 18.0718C17.9032 18.1018 17.9198 18.1426 17.9198 18.1851V24.0828C17.9198 24.1061 17.9244 24.1291 17.9332 24.1506C17.942 24.1722 17.9548 24.1917 17.9711 24.2082C17.9873 24.2246 18.0066 24.2377 18.0278 24.2466C18.0491 24.2555 18.0718 24.2601 18.0948 24.2601H21.6691C21.6969 24.2601 21.7241 24.2683 21.7473 24.2836C21.7704 24.299 21.7884 24.3208 21.7991 24.3464C21.8097 24.3719 21.8125 24.4 21.8071 24.4271C21.8016 24.4543 21.7882 24.4792 21.7686 24.4987C21.6519 24.6169 20.233 26.0328 17.5116 28.7464C16.7456 29.5101 15.9886 29.8919 15.2408 29.8919C14.4953 29.8942 13.7384 29.5124 12.97 28.7464C10.2487 26.0328 8.82973 24.6169 8.7131 24.4987C8.69342 24.4792 8.68001 24.4543 8.67458 24.4271C8.66915 24.4 8.67193 24.3719 8.68258 24.3464C8.69323 24.3208 8.71127 24.299 8.73441 24.2836C8.75755 24.2683 8.78475 24.2601 8.81258 24.2601H12.3869C12.4099 24.2601 12.4326 24.2555 12.4538 24.2466C12.475 24.2377 12.4943 24.2246 12.5106 24.2082C12.5268 24.1917 12.5397 24.1722 12.5485 24.1506C12.5573 24.1291 12.5618 24.1061 12.5618 24.0828V18.1851C12.5618 18.1426 12.5784 18.1018 12.608 18.0718C12.6376 18.0417 12.6778 18.0249 12.7196 18.0249C13.9499 18.0135 14.7903 18.0078 15.2408 18.0078Z" fill="#011428" fill-opacity="0.5"/>
</g>
<defs>
<clipPath id="clip0_353_4241">
<rect width="118" height="30" fill="white"/>
</clipPath>
</defs>
</svg>
