<svg width="48" height="48" viewBox="0 0 48 48" fill="none" xmlns="http://www.w3.org/2000/svg">
<rect width="48" height="48" rx="16" fill="#ED1C2A"/>
<path d="M23.9983 6C24.8369 6 25.6204 6.31428 26.21 6.88404C26.7184 7.37577 28.7283 9.32381 32.2399 12.7281C32.2447 12.7328 32.248 12.7387 32.2493 12.7451C32.2507 12.7516 32.25 12.7583 32.2474 12.7644C32.2448 12.7704 32.2404 12.7756 32.2347 12.7793C32.2291 12.7829 32.2224 12.7848 32.2157 12.7848H27.3351C27.3199 12.7848 27.3053 12.7907 27.2946 12.8011C27.2838 12.8115 27.2778 12.8256 27.2778 12.8404V20.2088C27.2778 20.2191 27.2736 20.2288 27.2662 20.2361C27.2587 20.2433 27.2486 20.2473 27.2381 20.2473C27.1624 20.248 26.0836 20.2488 24.0017 20.2495C21.9197 20.2502 20.8409 20.2502 20.7652 20.2495C20.7599 20.2495 20.7546 20.2484 20.7498 20.2464C20.7449 20.2444 20.7404 20.2415 20.7367 20.2378C20.733 20.2341 20.7302 20.2298 20.7282 20.225C20.7263 20.2202 20.7254 20.2151 20.7255 20.2099L20.7222 12.8415C20.7222 12.8267 20.7162 12.8126 20.7054 12.8021C20.6947 12.7917 20.6801 12.7859 20.6649 12.7859L15.7843 12.7891C15.7776 12.7891 15.7709 12.7872 15.7653 12.7835C15.7596 12.7799 15.7552 12.7747 15.7526 12.7686C15.75 12.7626 15.7493 12.7559 15.7507 12.7494C15.752 12.743 15.7553 12.7371 15.7601 12.7324C19.2702 9.32594 21.2794 7.37684 21.7878 6.88511C22.3774 6.31535 23.1598 6 23.9983 6Z" fill="white"/>
<path d="M13.4917 24.0006C13.4917 28.8744 13.4945 31.6104 13.5 32.2085C13.5002 32.2166 13.4977 32.2245 13.493 32.2314C13.4883 32.2382 13.4815 32.2435 13.4735 32.2467C13.4656 32.2499 13.4568 32.2508 13.4482 32.2493C13.4397 32.2478 13.4319 32.2439 13.4257 32.2382C12.2516 31.1353 10.2745 29.2903 7.49457 26.7031C6.9606 26.2071 6.60239 25.8074 6.41994 25.5039C6.13998 25.0388 6 24.5377 6 24.0006C6 23.4642 6.13998 22.9631 6.41994 22.4972C6.60239 22.1945 6.9606 21.7947 7.49457 21.298C10.2737 18.7109 12.25 16.8658 13.4233 15.7629C13.4294 15.7569 13.4372 15.7527 13.4458 15.7509C13.4544 15.7492 13.4634 15.7499 13.4716 15.753C13.4798 15.7561 13.4868 15.7614 13.4916 15.7683C13.4965 15.7752 13.499 15.7833 13.4988 15.7916C13.4933 16.3897 13.4909 19.126 13.4917 24.0006Z" fill="white"/>
<path d="M42 24C42 24.5368 41.8601 25.0376 41.5803 25.5025C41.3979 25.8057 41.0399 26.2056 40.5061 26.702C37.7259 29.2891 35.749 31.1341 34.5755 32.2371C34.5694 32.2431 34.5616 32.2473 34.553 32.2491C34.5444 32.2508 34.5354 32.2501 34.5272 32.247C34.519 32.2439 34.5121 32.2386 34.5072 32.2317C34.5023 32.2248 34.4998 32.2167 34.5 32.2085C34.5063 31.61 34.509 28.8738 34.5083 24C34.5083 19.1262 34.5055 16.39 34.5 15.7915C34.4998 15.7833 34.5023 15.7752 34.5072 15.7683C34.5121 15.7614 34.519 15.7561 34.5272 15.753C34.5354 15.7499 34.5444 15.7492 34.553 15.7509C34.5616 15.7527 34.5694 15.7569 34.5755 15.7629C35.749 16.8659 37.7259 18.7109 40.5061 21.298C41.0399 21.7944 41.3979 22.1939 41.5803 22.4964C41.8601 22.962 42 23.4632 42 24Z" fill="white"/>
<path d="M24.0017 27.75C26.0832 27.75 27.1618 27.7507 27.2374 27.7521C27.248 27.7521 27.2581 27.7562 27.2655 27.7634C27.2729 27.7706 27.2771 27.7804 27.2771 27.7906L27.2782 35.1594C27.2782 35.1741 27.2843 35.1883 27.295 35.1987C27.3058 35.2091 27.3203 35.215 27.3355 35.215L32.2157 35.2139C32.2224 35.2139 32.2291 35.2158 32.2347 35.2195C32.2404 35.2231 32.2448 35.2283 32.2474 35.2344C32.25 35.2404 32.2507 35.2471 32.2493 35.2536C32.248 35.26 32.2447 35.266 32.2399 35.2706C28.7286 38.6756 26.7187 40.624 26.2103 41.1158C25.6206 41.6857 24.8371 42 23.9994 42C23.1607 42 22.3771 41.6857 21.7875 41.1147C21.2798 40.6229 19.2707 38.6741 15.7601 35.2685C15.7553 35.2638 15.752 35.2579 15.7507 35.2514C15.7493 35.245 15.75 35.2383 15.7526 35.2322C15.7552 35.2261 15.7596 35.221 15.7653 35.2173C15.7709 35.2137 15.7776 35.2118 15.7843 35.2118L20.6656 35.2139C20.6808 35.2139 20.6954 35.2081 20.7061 35.1976C20.7168 35.1872 20.7229 35.1731 20.7229 35.1583L20.7251 27.7896C20.7251 27.7794 20.7293 27.7696 20.7367 27.7623C20.7441 27.7551 20.7542 27.7511 20.7648 27.7511C20.8404 27.7504 21.9194 27.75 24.0017 27.75Z" fill="white"/>
</svg>
