<svg width="102" height="24" viewBox="0 0 102 24" fill="none" xmlns="http://www.w3.org/2000/svg">
<g clip-path="url(#clip0_353_4151)">
<path d="M26.5169 0C27.311 0.100952 28.0593 0.166667 28.8811 0.38381C29.3068 0.49619 29.6961 0.626667 30.0488 0.775238C32.7319 1.90603 34.5079 3.88317 35.3766 6.70667C35.6429 7.5727 35.7885 8.59143 35.8132 9.76286C35.8876 13.1914 34.3214 16.4705 31.3882 18.3229C28.9297 19.8762 25.6952 20.2362 22.8716 19.4562C20.9714 18.9311 19.4014 17.9549 18.1615 16.5276C15.8231 13.8343 15.2588 9.88 16.3427 6.52952C17.0214 4.43238 18.3903 2.62857 20.2091 1.51905C21.8183 0.538095 23.4998 0.0961905 25.373 0H26.5169ZM19.3007 9.87619C19.2988 10.339 19.3099 10.7016 19.334 10.9638C19.5409 13.241 20.6372 15.6733 22.5742 16.9019C23.504 17.4917 24.5602 17.7971 25.7429 17.8181C30.2357 17.8981 32.3786 13.8667 32.3939 9.92857C32.4091 5.98952 30.2986 1.94095 25.8048 1.98571C24.6222 1.99778 23.5637 2.29492 22.6295 2.87714C20.6829 4.09048 19.5676 6.51429 19.3426 8.78952C19.3166 9.05175 19.3026 9.41397 19.3007 9.87619Z" fill="#011428" fill-opacity="0.5"/>
<path d="M46.7702 4.36495C46.5557 4.33543 46.4137 4.18305 46.3212 3.94781C45.9278 2.95162 45.1897 2.32939 44.1068 2.08114C43.1535 1.86273 42.299 2.00305 41.5434 2.50209C40.593 3.13066 40.1497 4.22876 40.3995 5.34209C40.7274 6.80876 42.2498 7.57828 43.5377 8.02971C44.5329 8.37955 45.4019 8.77225 46.1449 9.20781C47.1258 9.78495 48.0428 10.5611 48.5795 11.5259C49.4193 13.0335 49.1934 14.9964 48.385 16.4802C47.5519 18.0107 46.04 19.0764 44.3346 19.5107C43.958 19.6069 43.4414 19.7135 43.0248 19.725C40.6912 19.7869 38.5091 19.2811 36.9029 17.5659C36.8872 17.5491 36.8762 17.5285 36.8708 17.5061C36.8655 17.4837 36.866 17.4604 36.8724 17.4383L37.7218 14.5497C37.7255 14.537 37.7318 14.5251 37.7403 14.515C37.7489 14.5048 37.7595 14.4966 37.7714 14.4907C37.7834 14.4849 37.7964 14.4816 37.8097 14.4811C37.823 14.4806 37.8362 14.4829 37.8485 14.4878C38.0992 14.585 38.1984 14.604 38.2756 14.8897C38.6045 16.1078 39.7036 17.043 40.8637 17.485C41.9934 17.9145 43.5682 17.9992 44.6444 17.3688C45.1376 17.0799 45.5179 16.6957 45.7855 16.2164C46.4518 15.0202 46.3403 13.3754 45.2431 12.4669C44.6454 11.9716 44.0591 11.664 43.3003 11.2945C42.5777 10.9421 41.7827 10.6678 41.1135 10.3811C40.7652 10.2319 40.3331 10.0037 39.817 9.69638C38.3287 8.80876 37.5381 7.48971 37.4453 5.73924C37.4256 5.36463 37.465 4.93638 37.5635 4.45447C37.8425 3.09003 38.5603 2.02019 39.7169 1.24495C40.2355 0.897331 40.7827 0.617331 41.3947 0.427807C42.4999 0.0874899 43.6355 -0.0150497 44.8017 0.120188C46.0289 0.261776 47.0978 0.732887 48.0085 1.53352C48.0322 1.5544 48.0485 1.58235 48.055 1.61324C48.0616 1.64412 48.058 1.67629 48.0447 1.70495L46.8503 4.32114C46.8433 4.336 46.8318 4.34826 46.8174 4.35614C46.803 4.36401 46.7865 4.3671 46.7702 4.36495Z" fill="#011428" fill-opacity="0.5"/>
<path d="M21.7201 24.0002H21.0233C19.5927 23.9297 18.2524 23.5602 17.0024 22.8917C16.3237 22.5291 15.7434 22.1574 15.2617 21.7764C13.2894 20.2155 11.6707 18.3659 10.0788 16.3459C8.69462 14.5897 7.14905 12.6644 5.44206 10.5697C5.41708 10.5389 5.39996 10.5024 5.39215 10.4634C5.38435 10.4245 5.3861 10.3842 5.39726 10.3459L5.48877 10.0345C5.49407 10.0162 5.50497 9.99992 5.51999 9.98799C5.53501 9.97605 5.55341 9.96901 5.57266 9.96784C6.81096 9.89832 8.01017 9.65927 9.06163 9.00689C9.93483 8.46498 10.6212 7.51737 10.8052 6.51927C10.9361 5.8107 10.8884 5.09641 10.6622 4.37641C10.216 2.95641 8.93675 2.28784 7.52973 2.09165C6.63238 1.96721 5.7112 1.94657 4.76619 2.02975C4.74741 2.03141 4.72994 2.03997 4.71723 2.05373C4.70452 2.06748 4.6975 2.08543 4.69756 2.10403V18.3983C4.69756 18.4678 4.71388 18.5366 4.74522 18.5993L5.20946 19.5202C5.21123 19.5238 5.21206 19.5278 5.21187 19.5318C5.21169 19.5358 5.21049 19.5397 5.2084 19.5431C5.20631 19.5465 5.20339 19.5494 5.19991 19.5514C5.19643 19.5534 5.1925 19.5544 5.18849 19.5545H0.850156C0.84355 19.5545 0.837038 19.5528 0.831293 19.5495C0.825548 19.5463 0.820777 19.5416 0.817473 19.536C0.81417 19.5303 0.812453 19.524 0.812501 19.5175C0.812549 19.5111 0.814359 19.5048 0.817745 19.4993L1.37922 18.5393C1.41791 18.4731 1.43831 18.3982 1.43832 18.3221C1.44023 12.7336 1.43991 7.3326 1.43737 2.11927C1.43737 1.91292 1.40115 1.71641 1.3287 1.52975C1.17681 1.14181 1.01952 0.76054 0.856829 0.385937C0.854631 0.380737 0.853753 0.375075 0.854272 0.369455C0.854791 0.363834 0.856691 0.358428 0.859803 0.353717C0.862915 0.349007 0.867143 0.345136 0.872112 0.34245C0.877081 0.339763 0.882637 0.338344 0.888287 0.338318C2.01887 0.324985 3.82341 0.281493 6.30191 0.207842C7.64698 0.167842 8.81474 0.231651 10.0349 0.56689C11.7089 1.02784 13.1578 2.16308 13.6917 3.87356C14.2694 5.72784 13.8366 7.48498 12.5687 8.91832C11.8566 9.72308 10.8881 10.2145 9.82902 10.5612C9.67649 10.6107 9.51984 10.6409 9.35905 10.6517C9.34805 10.6524 9.33748 10.6562 9.3285 10.6626C9.31953 10.669 9.31248 10.6778 9.30815 10.6879C9.30382 10.6981 9.30236 10.7092 9.30394 10.7201C9.30552 10.731 9.31008 10.7413 9.31711 10.7497C10.5837 12.2812 11.8042 13.7882 12.9786 15.2707C14.6974 17.4412 16.4685 19.4288 18.7164 20.9631C19.179 21.2786 19.7627 21.6021 20.4675 21.9336C21.7392 22.5317 23.0379 22.7955 24.3635 22.725C24.3935 22.7233 24.4234 22.7304 24.4494 22.7454C24.4755 22.7605 24.4967 22.7828 24.5103 22.8097L24.7963 23.3774C24.7996 23.3837 24.8013 23.3907 24.8016 23.3978C24.8018 23.4049 24.8005 23.412 24.7976 23.4186C24.7948 23.4251 24.7906 23.431 24.7853 23.4357C24.7799 23.4404 24.7736 23.4439 24.7668 23.4459C23.7811 23.7469 22.7655 23.9317 21.7201 24.0002Z" fill="#011428" fill-opacity="0.5"/>
<path d="M50.8049 19.5532C50.7979 19.553 50.791 19.5511 50.7849 19.5474C50.7789 19.5438 50.7739 19.5386 50.7705 19.5324C50.7671 19.5262 50.7655 19.5192 50.7656 19.5122C50.7658 19.5051 50.7679 19.4982 50.7716 19.4922L51.4026 18.5084C51.4369 18.4555 51.4551 18.3937 51.4551 18.3303C51.4544 11.4668 51.4544 6.28493 51.4551 2.78461C51.4551 2.35731 51.4493 2.00016 51.4379 1.71318C51.4236 1.33318 51.0995 0.931274 50.7725 0.393179C50.7693 0.387814 50.7676 0.381691 50.7675 0.375438C50.7674 0.369186 50.769 0.363029 50.7722 0.3576C50.7753 0.352171 50.7798 0.347665 50.7852 0.344545C50.7906 0.341425 50.7968 0.339803 50.803 0.339846H55.129C55.1354 0.339779 55.1417 0.341375 55.1473 0.344478C55.153 0.347581 55.1577 0.352085 55.161 0.357551C55.1644 0.363017 55.1663 0.36926 55.1665 0.37567C55.1667 0.382081 55.1653 0.388441 55.1623 0.394131L54.6523 1.41223C54.6404 1.43606 54.6342 1.46247 54.6342 1.48937V8.74842C54.6342 8.76484 54.6407 8.78058 54.6524 8.79219C54.664 8.8038 54.6797 8.81032 54.6962 8.81032H64.7875C64.8065 8.81032 64.8246 8.8028 64.8381 8.7894C64.8515 8.77601 64.859 8.75784 64.859 8.73889C64.8628 5.36302 64.8619 3.19635 64.8561 2.23889C64.8542 1.89413 64.8495 1.51604 64.6598 1.19032C64.4596 0.846195 64.2947 0.582703 64.165 0.399846C64.161 0.394187 64.1587 0.387552 64.1582 0.380653C64.1577 0.373754 64.1591 0.36685 64.1622 0.360683C64.1653 0.354516 64.1701 0.349318 64.176 0.345647C64.1818 0.341976 64.1886 0.339971 64.1955 0.339846H68.5138C68.5194 0.339858 68.5248 0.341245 68.5297 0.343882C68.5345 0.34652 68.5387 0.350324 68.5417 0.354953C68.5447 0.359582 68.5466 0.36489 68.547 0.370399C68.5475 0.375908 68.5466 0.381445 68.5443 0.386512L68.0582 1.45032C68.0469 1.47478 68.041 1.50142 68.041 1.52842V18.3465C68.041 18.3991 68.0534 18.451 68.0772 18.4979L68.5358 19.4075C68.5405 19.4169 68.5428 19.4274 68.5424 19.438C68.542 19.4486 68.5389 19.4588 68.5334 19.4678C68.528 19.4768 68.5203 19.4842 68.5112 19.4893C68.5021 19.4944 68.4919 19.497 68.4814 19.497H64.2155C64.2067 19.4968 64.1981 19.4944 64.1905 19.4898C64.183 19.4852 64.1768 19.4787 64.1727 19.4709C64.1685 19.4632 64.1664 19.4544 64.1668 19.4456C64.1671 19.4368 64.1698 19.4282 64.1745 19.4208L64.7999 18.4465C64.8397 18.3843 64.8609 18.3123 64.8609 18.2389V10.7798C64.8609 10.7576 64.8521 10.7363 64.8363 10.7206C64.8206 10.7049 64.7993 10.696 64.777 10.696H54.6952C54.679 10.696 54.6635 10.7025 54.6521 10.7139C54.6406 10.7253 54.6342 10.7408 54.6342 10.757V18.3294C54.6342 18.4239 54.6564 18.5169 54.699 18.6008L55.1518 19.4979C55.1548 19.5038 55.1562 19.5103 55.1559 19.5168C55.1556 19.5233 55.1536 19.5296 55.1502 19.5352C55.1467 19.5407 55.1419 19.5453 55.1362 19.5484C55.1305 19.5516 55.1241 19.5532 55.1175 19.5532H50.8049Z" fill="#011428" fill-opacity="0.5"/>
<path d="M82.8827 16.9922C82.8889 16.9907 82.8954 16.9908 82.9015 16.9926C82.9075 16.9945 82.913 16.9979 82.9173 17.0026C82.9216 17.0073 82.9246 17.013 82.9259 17.0193C82.9272 17.0255 82.9267 17.0319 82.9247 17.0379L82.0658 19.477C82.058 19.4992 82.0435 19.5185 82.0242 19.5322C82.0049 19.5458 81.9818 19.5532 81.958 19.5532H70.6132C70.6074 19.5531 70.6017 19.5517 70.5967 19.549C70.5916 19.5462 70.5872 19.5423 70.584 19.5375C70.5809 19.5327 70.5789 19.5272 70.5783 19.5215C70.5777 19.5157 70.5786 19.5099 70.5808 19.5046L71.0907 18.2579C71.0958 18.2453 71.0984 18.2321 71.0984 18.2189V1.83127C71.0984 1.81551 71.0958 1.79975 71.0907 1.78461L70.5836 0.402701C70.581 0.395642 70.5801 0.388057 70.5811 0.380591C70.582 0.373125 70.5848 0.366002 70.5891 0.359827C70.5934 0.353652 70.5991 0.34861 70.6058 0.345131C70.6125 0.341651 70.6199 0.339837 70.6275 0.339844H82.2364C82.2415 0.339822 82.2466 0.341059 82.2512 0.343453C82.2557 0.345846 82.2597 0.349327 82.2627 0.353608C82.2656 0.357888 82.2676 0.362846 82.2683 0.368071C82.2691 0.373295 82.2686 0.378637 82.2669 0.383654L81.3966 2.85508C81.3923 2.86719 81.3833 2.8771 81.3717 2.88264C81.3601 2.88817 81.3467 2.88888 81.3346 2.88461L79.7121 2.31413C79.6213 2.28199 79.5255 2.26557 79.429 2.26556H74.3891C74.3757 2.26556 74.3628 2.27098 74.3533 2.28062C74.3439 2.29027 74.3385 2.30335 74.3385 2.31699V8.68842C74.3385 8.70913 74.3468 8.72899 74.3614 8.74364C74.3761 8.75828 74.396 8.76651 74.4167 8.76651H80.7226C80.7964 8.76651 80.8693 8.75362 80.938 8.72842L81.123 8.6608C81.1304 8.65821 81.1384 8.65778 81.1461 8.65954C81.1538 8.6613 81.1608 8.66519 81.1664 8.67075C81.172 8.67632 81.1759 8.68334 81.1776 8.69101C81.1794 8.69868 81.1789 8.7067 81.1764 8.71413L80.5024 10.6275C80.4955 10.6477 80.4823 10.6653 80.4649 10.6778C80.4475 10.6902 80.4266 10.697 80.4052 10.697H74.4672C74.4518 10.697 74.437 10.703 74.4261 10.7137C74.4152 10.7244 74.4091 10.739 74.4091 10.7541V17.5008C74.4091 17.5098 74.4109 17.5187 74.4143 17.527C74.4178 17.5354 74.4228 17.5429 74.4292 17.5493C74.4356 17.5557 74.4431 17.5607 74.4515 17.5641C74.4598 17.5676 74.4687 17.5694 74.4777 17.5694H80.6139C80.6595 17.5694 80.705 17.5636 80.7493 17.5522L82.8827 16.9922Z" fill="#011428" fill-opacity="0.5"/>
<path d="M88.0127 5.13418C88.0108 5.13227 88.0085 5.13097 88.0058 5.13044C88.0032 5.12991 88.0005 5.13017 87.998 5.1312C87.9956 5.13223 87.9935 5.13396 87.992 5.13619C87.9906 5.13842 87.9898 5.14104 87.9898 5.1437V18.3418C87.9898 18.4389 88.0127 18.5345 88.0566 18.6208L88.4979 19.4961C88.501 19.5023 88.5024 19.5092 88.5021 19.5161C88.5018 19.523 88.4997 19.5297 88.4961 19.5356C88.4925 19.5415 88.4874 19.5464 88.4814 19.5498C88.4754 19.5532 88.4686 19.555 88.4617 19.5551H84.7802C84.7764 19.5551 84.7728 19.5541 84.7696 19.5521C84.7664 19.5502 84.7638 19.5473 84.762 19.5439C84.7602 19.5405 84.7594 19.5367 84.7596 19.5328C84.7598 19.5289 84.761 19.5251 84.763 19.5218L85.4246 18.4913C85.4514 18.4496 85.4656 18.401 85.4656 18.3513C85.4668 11.9253 85.4665 6.53862 85.4646 2.19132C85.4646 1.97799 85.4077 1.77862 85.294 1.59323C85.0322 1.16529 84.7802 0.769733 84.538 0.406559C84.534 0.400294 84.5316 0.393052 84.5313 0.385584C84.531 0.378116 84.5326 0.370694 84.5361 0.364087C84.5396 0.35748 84.5448 0.351929 84.5512 0.348009C84.5576 0.34409 84.5649 0.341945 84.5724 0.341797H87.9145C87.9523 0.341822 87.9897 0.349809 88.0242 0.365234C88.0587 0.38066 88.0895 0.403179 88.1147 0.431321L98.859 12.4066C98.8644 12.4127 98.8715 12.417 98.8794 12.419C98.8873 12.4209 98.8956 12.4203 98.9033 12.4173C98.9109 12.4143 98.9176 12.409 98.9223 12.4022C98.9269 12.3953 98.9295 12.3872 98.9296 12.3789C98.9258 7.2964 98.9251 3.94815 98.9277 2.33418C98.9277 2.1618 98.9496 1.58465 98.799 1.31418C98.642 1.031 98.4587 0.732273 98.2489 0.417987C98.2439 0.410725 98.2411 0.402246 98.2406 0.393453C98.2402 0.384661 98.2421 0.375885 98.2463 0.368063C98.2505 0.360241 98.2568 0.353667 98.2645 0.349041C98.2722 0.344415 98.281 0.341911 98.2899 0.341797H101.951C101.957 0.341835 101.961 0.343131 101.966 0.34557C101.97 0.348008 101.974 0.351511 101.977 0.355763C101.98 0.360015 101.981 0.364883 101.982 0.369927C101.982 0.37497 101.981 0.380032 101.979 0.384654L101.491 1.45418C101.469 1.50188 101.458 1.55355 101.458 1.60561V19.8437C101.458 19.8526 101.454 19.8612 101.449 19.8682C101.443 19.8752 101.436 19.8802 101.427 19.8824C101.419 19.8846 101.41 19.8839 101.402 19.8803C101.394 19.8767 101.387 19.8706 101.383 19.8627C101.333 19.7694 101.26 19.6697 101.163 19.5637C99.233 17.4475 95.0262 12.8259 88.5427 5.69894C88.333 5.46783 88.1563 5.27957 88.0127 5.13418Z" fill="#011428" fill-opacity="0.5"/>
<path d="M0 23.3478V22.3935L12.5317 22.3926C12.5589 22.3926 12.5854 22.4016 12.607 22.4183L13.2457 22.8878C13.2599 22.8982 13.2714 22.9118 13.2794 22.9275C13.2873 22.9432 13.2915 22.9606 13.2915 22.9783V23.2811C13.2915 23.2991 13.2843 23.3163 13.2716 23.329C13.2589 23.3416 13.2417 23.3488 13.2238 23.3488L0 23.3478Z" fill="#011428" fill-opacity="0.5"/>
<path d="M101.759 22.4621V23.4611C101.759 23.4688 101.757 23.4763 101.754 23.4834C101.751 23.4904 101.747 23.4968 101.742 23.5022C101.736 23.5076 101.73 23.5119 101.723 23.5148C101.716 23.5177 101.708 23.5192 101.701 23.5192C78.0761 23.5186 53.883 23.5186 29.1215 23.5192C28.8079 23.5192 28.4618 23.5469 28.1606 23.3154C28.0062 23.198 27.8076 23.0281 27.5648 22.8059C27.5567 22.7984 27.5502 22.7893 27.5458 22.7791C27.5414 22.769 27.5391 22.758 27.5391 22.7469V22.4631C27.5391 22.4444 27.5466 22.4264 27.56 22.4132C27.5734 22.4 27.5916 22.3926 27.6106 22.3926H101.689C101.698 22.3926 101.707 22.3944 101.716 22.3979C101.724 22.4014 101.732 22.4065 101.738 22.4129C101.745 22.4194 101.75 22.4271 101.754 22.4355C101.757 22.4439 101.759 22.453 101.759 22.4621Z" fill="#011428" fill-opacity="0.5"/>
</g>
<defs>
<clipPath id="clip0_353_4151">
<rect width="102" height="24" fill="white"/>
</clipPath>
</defs>
</svg>
