<svg width="48" height="48" viewBox="0 0 48 48" fill="none" xmlns="http://www.w3.org/2000/svg">
<path d="M47.9997 24.1097C47.9389 37.3642 37.1449 48.0595 23.8904 47.9998C10.6348 47.9388 -0.0605632 37.1459 0.000258123 23.8903C0.0610794 10.6358 10.8551 -0.0595074 24.1096 0.000249188C37.364 0.061155 48.0606 10.8541 47.9997 24.1086" fill="#1D1D1B"/>
<path d="M12.5914 18.4419C13.4039 18.6189 14.3105 17.6249 14.6169 16.2194C14.9233 14.814 14.5136 13.5315 13.7011 13.3534C13.1526 13.2339 12.5616 13.6488 12.1416 14.3635C12.5214 14.5554 12.6924 15.0128 12.5214 15.4104C12.3677 15.769 11.9878 15.9586 11.6206 15.8873C11.4335 17.1663 11.8398 18.2787 12.5926 18.4431L12.5914 18.4419ZM8.68396 15.4943C9.33692 12.0066 11.3486 9.46809 13.1778 9.82318C15.0071 10.1783 15.9619 13.2937 15.31 16.7802C14.6571 20.2679 12.6454 22.8065 10.8161 22.4514C8.98692 22.0963 8.03214 18.9809 8.68396 15.4943ZM40.4327 18.4327C19.9405 32.1526 5.82421 25.1887 5.82421 25.1887C5.62338 29.9485 13.7688 44.5992 23.514 44.7877C33.2592 44.9762 40.4327 18.4327 40.4327 18.4327ZM10.6876 23.0167C12.8324 23.4259 15.1586 20.6782 15.8815 16.8791C16.6045 13.0799 15.4512 9.66804 13.3064 9.25779C11.1604 8.84869 8.83543 11.5963 8.11246 15.3955C7.38949 19.1946 8.5428 22.6065 10.6876 23.0167ZM18.0378 21.0643C18.755 20.2622 19.5813 19.4808 20.5131 18.7602C24.7339 15.4955 29.3724 14.6842 30.8734 16.9503C31.4541 17.826 31.4747 19.036 31.0444 20.376C32.5523 17.8926 33.0377 15.5897 32.091 14.3061C30.5291 12.1905 25.6841 13.643 21.2682 17.5513C20.0025 18.6718 18.9169 19.8726 18.0378 21.0643ZM22.7601 10.6667C26.1385 8.36719 31.9797 7.10425 35.0896 11.8986C33.1949 0.889565 25.0793 7.23985 22.7601 10.6667ZM47.3548 24.1096C47.2963 37.009 36.7914 47.417 23.8904 47.3572C10.9906 47.2975 0.640625 36.7929 0.640625 23.8936C0.640625 15.5253 4.80746 9.53129 8.77576 6.30099C13.6254 2.35245 16.9361 5.3874 18.0975 7.68458C17.9575 6.70894 17.5627 3.91187 16.4806 1.89279C18.8721 1.07688 21.4346 0.632153 24.1039 0.644794C37.0049 0.70455 47.4145 11.2091 47.356 24.1085L47.3548 24.1096ZM32.6326 35.8977C30.0976 40.4473 26.943 44.1694 23.4234 44.1016C21.2407 44.0591 19.1464 43.2248 17.2276 41.9274C17.876 40.8173 21.6951 35.2542 32.6326 35.8966" fill="#05BC52"/>
</svg>
