<svg width="113" height="30" viewBox="0 0 113 30" fill="none" xmlns="http://www.w3.org/2000/svg">
<path d="M6.42813 8.00228C6.44916 7.99362 6.47201 7.99019 6.49466 7.9923C6.5173 7.99441 6.53905 8.002 6.55795 8.01439C6.57686 8.02679 6.59235 8.0436 6.60305 8.06334C6.61374 8.08307 6.61931 8.10513 6.61926 8.12754C6.5975 13.4626 6.59025 17.0806 6.5975 18.9817C6.60061 19.6157 6.64412 20.4461 6.87876 21.0523C7.55106 22.7987 8.87081 23.7332 10.838 23.8559C13.2667 24.0059 15.4949 23.0873 16.174 20.5915C16.2879 20.175 16.3439 19.5868 16.3418 18.827C16.3397 17.5342 16.3361 12.6234 16.3309 4.09455C16.3309 4.04016 16.3471 3.98699 16.3776 3.94182C16.408 3.89665 16.4513 3.86153 16.5019 3.84094L20.5854 2.15383C20.6003 2.14775 20.6164 2.14539 20.6323 2.14696C20.6483 2.14853 20.6637 2.15399 20.677 2.16285C20.6904 2.17171 20.7013 2.1837 20.7089 2.19777C20.7165 2.21184 20.7205 2.22755 20.7206 2.24352C20.704 12.4332 20.69 18.2698 20.6786 19.7533C20.6289 26.2528 14.544 28.4069 9.01221 27.561C5.52378 27.0275 2.95524 24.9105 2.38497 21.3275C2.20317 20.1755 2.22181 18.9631 2.21715 17.726C2.20679 15.1734 2.20938 12.5719 2.22492 9.92136C2.2254 9.86633 2.24199 9.81269 2.27264 9.76707C2.3033 9.72144 2.34667 9.68584 2.3974 9.66466L6.42813 8.00228Z" fill="#011428" fill-opacity="0.5"/>
<path d="M44.8152 6.95719C46.1641 6.9361 47.2406 5.84185 47.2196 4.51312C47.1986 3.18438 46.0881 2.12432 44.7393 2.14541C43.3904 2.1665 42.3139 3.26075 42.3349 4.58948C42.3558 5.91822 43.4663 6.97828 44.8152 6.95719Z" fill="#011428" fill-opacity="0.5"/>
<path d="M100.477 2.26879C100.477 2.25866 100.48 2.24869 100.485 2.23976C100.489 2.23082 100.496 2.2232 100.505 2.21755C100.514 2.2119 100.524 2.2084 100.534 2.20736C100.544 2.20632 100.555 2.20776 100.564 2.21157L104.569 3.88786C104.609 3.90488 104.644 3.93332 104.668 3.96962C104.692 4.00593 104.705 4.04849 104.705 4.09199V9.09611C104.705 9.1199 104.715 9.14271 104.732 9.15953C104.75 9.17635 104.773 9.1858 104.797 9.1858H109.568C109.589 9.1858 109.61 9.19 109.63 9.19816C109.65 9.20632 109.668 9.21828 109.683 9.23336C109.698 9.24843 109.71 9.26633 109.718 9.28603C109.726 9.30573 109.731 9.32685 109.731 9.34817V12.4997C109.731 12.5227 109.721 12.5447 109.705 12.561C109.688 12.5772 109.666 12.5863 109.642 12.5863H104.78C104.761 12.5863 104.742 12.594 104.728 12.6076C104.715 12.6212 104.707 12.6397 104.707 12.659C104.701 17.4982 104.705 20.2755 104.721 20.991C104.746 22.1337 105.004 23.5487 106.236 23.9554C107.493 24.3683 109.03 24.0265 110.239 23.3276C110.25 23.3213 110.262 23.318 110.275 23.318C110.287 23.318 110.299 23.3213 110.31 23.3276C110.321 23.3339 110.33 23.3429 110.337 23.3538C110.343 23.3646 110.346 23.3769 110.346 23.3894V27.0234C110.346 27.0647 110.332 27.1049 110.307 27.1379C110.282 27.1708 110.246 27.1947 110.206 27.2059C108.924 27.5523 107.538 27.7095 106.048 27.6776C102.443 27.5987 100.529 25.4817 100.491 21.9574C100.464 19.343 100.46 16.2791 100.477 12.7657C100.477 12.7202 100.459 12.6765 100.427 12.6443C100.395 12.6121 100.351 12.594 100.305 12.594H98.4729C98.4469 12.594 98.422 12.5838 98.4037 12.5655C98.3853 12.5472 98.375 12.5225 98.375 12.4966V9.27704C98.375 9.25202 98.3851 9.22803 98.4032 9.21034C98.4213 9.19265 98.4458 9.18271 98.4713 9.18271H100.266C100.322 9.18271 100.376 9.16055 100.415 9.12111C100.455 9.08167 100.477 9.02817 100.477 8.9724V2.26879Z" fill="#011428" fill-opacity="0.5"/>
<path d="M81.3621 22.6496C81.3722 22.6438 81.3834 22.6401 81.395 22.6389C81.4066 22.6376 81.4183 22.6387 81.4294 22.6422C81.4405 22.6457 81.4508 22.6515 81.4595 22.6591C81.4683 22.6668 81.4753 22.6762 81.4802 22.6867L82.8632 25.5707C82.8812 25.6085 82.8854 25.6514 82.8752 25.692C82.865 25.7326 82.841 25.7684 82.8072 25.7934C82.1432 26.2769 81.5274 26.6259 80.9597 26.8403C77.3563 28.198 72.7257 28.2753 69.4393 26.0222C66.6439 24.1063 65.7085 21.0676 65.8592 17.7893C65.9959 14.7924 67.295 12.3027 69.7547 10.4934C71.7219 9.04441 74.219 8.65627 76.6011 9.04287C81.7817 9.88565 83.8903 14.6207 83.2905 19.4377C83.2867 19.4684 83.2715 19.4966 83.2477 19.5171C83.224 19.5377 83.1933 19.549 83.1615 19.5491H70.412C70.3947 19.549 70.3775 19.5525 70.3616 19.5594C70.3457 19.5663 70.3314 19.5763 70.3196 19.589C70.3077 19.6016 70.2987 19.6165 70.2929 19.6328C70.2872 19.6491 70.2849 19.6664 70.2862 19.6836C70.4773 22.43 72.6434 24.0722 75.2834 24.1449C77.1713 24.1975 78.761 24.0506 80.4018 23.2326C80.6924 23.0872 81.0576 22.8197 81.3621 22.6496ZM70.6404 16.3805L79.3732 16.365C79.3798 16.365 79.3861 16.3624 79.3908 16.3578C79.3954 16.3531 79.398 16.3469 79.398 16.3403V16.3279C79.396 15.2741 78.9567 14.2642 78.1767 13.5204C77.3966 12.7766 76.3397 12.3597 75.2383 12.3614H74.7629C74.2173 12.3623 73.6772 12.466 73.1736 12.6665C72.6699 12.8671 72.2124 13.1607 71.8273 13.5305C71.4421 13.9003 71.1369 14.339 70.929 14.8216C70.7211 15.3043 70.6146 15.8214 70.6156 16.3434V16.3558C70.6156 16.3623 70.6182 16.3686 70.6229 16.3732C70.6275 16.3779 70.6338 16.3805 70.6404 16.3805Z" fill="#011428" fill-opacity="0.5"/>
<path d="M86.6245 22.916C86.63 22.9043 86.6381 22.8939 86.6482 22.8857C86.6582 22.8774 86.6699 22.8716 86.6824 22.8684C86.695 22.8653 86.708 22.8651 86.7206 22.8677C86.7331 22.8703 86.7449 22.8757 86.755 22.8835C88.2571 24.0196 89.9508 24.4753 91.8361 24.2505C92.596 24.1593 93.3325 23.6845 93.4164 22.8248C93.5241 21.7268 93.0626 20.9031 92.0319 20.3536C91.2643 19.9433 90.3366 19.5062 89.2489 19.0423C88.4534 18.7031 87.7189 18.2505 87.0456 17.6845C85.4295 16.3248 84.8375 14.6335 85.2695 12.6108C85.6844 10.6655 87.6547 9.40671 89.5659 9.07578C92.0262 8.65104 94.4073 8.98094 96.7091 10.0655C96.7488 10.0843 96.7798 10.1175 96.796 10.1582C96.8121 10.199 96.8122 10.2443 96.7961 10.2851L95.7255 13.0577C95.708 13.1027 95.6735 13.1389 95.6295 13.1586C95.5855 13.1783 95.5357 13.1799 95.4908 13.1629C95.1365 13.0284 94.6067 12.6912 94.1996 12.5691C93.0176 12.2165 91.947 12.1165 90.9877 12.2691C89.3779 12.5242 88.9537 14.3428 90.2667 15.2876C90.7018 15.6021 91.4119 15.9624 92.3971 16.3686C93.8903 16.9856 94.9097 17.3691 96.0409 18.2351C97.5746 19.4088 98.1075 21.4175 97.7874 23.2825C97.3928 25.5804 95.2935 27.0387 93.1289 27.4639C91.6341 27.7577 90.1025 27.7742 88.5342 27.5134C87.3843 27.3217 86.2826 26.734 85.2322 26.2005C85.2096 26.1893 85.1923 26.1697 85.1839 26.1458C85.1755 26.1219 85.1766 26.0955 85.1871 26.0722L86.6245 22.916Z" fill="#011428" fill-opacity="0.5"/>
<path d="M39.4529 27.3412H35.5449C35.512 27.3412 35.4803 27.3281 35.457 27.3046C35.4337 27.2811 35.4206 27.2492 35.4206 27.216C35.4248 21.6737 35.4289 18.117 35.4331 16.5459C35.4346 15.3768 35.273 14.367 34.4976 13.5799C33.0215 12.0784 29.7863 12.6335 27.9916 13.0866C27.9564 13.0956 27.9252 13.1159 27.903 13.1445C27.8808 13.1731 27.8687 13.2082 27.8688 13.2443V27.1495C27.8688 27.1975 27.8497 27.2435 27.8156 27.2774C27.7815 27.3114 27.7352 27.3304 27.687 27.3304H23.8847C23.8262 27.3304 23.7701 27.3071 23.7287 27.2657C23.6873 27.2242 23.6641 27.1679 23.6641 27.1093V10.6804C23.6641 10.6378 23.6755 10.596 23.697 10.5593C23.7186 10.5226 23.7496 10.4923 23.7868 10.4717C24.0116 10.348 24.2918 10.233 24.6275 10.1268C27.9092 9.09537 31.5934 8.57424 34.9436 9.37372C36.7461 9.80517 38.185 10.8196 38.9261 12.5608C39.3395 13.5351 39.5518 14.632 39.5632 15.8516C39.5953 19.5031 39.6047 23.2871 39.5912 27.2036C39.5912 27.2217 39.5876 27.2396 39.5807 27.2563C39.5737 27.273 39.5635 27.2882 39.5507 27.3009C39.5379 27.3137 39.5226 27.3239 39.5058 27.3308C39.4891 27.3377 39.4711 27.3412 39.4529 27.3412Z" fill="#011428" fill-opacity="0.5"/>
<path d="M46.7863 9.19141H42.768C42.6977 9.19141 42.6406 9.24818 42.6406 9.31821V27.2131C42.6406 27.2831 42.6977 27.3399 42.768 27.3399H46.7863C46.8567 27.3399 46.9138 27.2831 46.9138 27.2131V9.31821C46.9138 9.24818 46.8567 9.19141 46.7863 9.19141Z" fill="#011428" fill-opacity="0.5"/>
<path d="M57.2996 20.2646L61.9161 9.33627C61.9214 9.32339 61.9304 9.31237 61.9421 9.30466C61.9537 9.29694 61.9674 9.29287 61.9814 9.29297H66.2592C66.2709 9.29292 66.2825 9.29583 66.2929 9.30143C66.3032 9.30703 66.312 9.31515 66.3184 9.32502C66.3247 9.33489 66.3285 9.3462 66.3293 9.3579C66.33 9.3696 66.3278 9.38131 66.3229 9.39194L57.9724 27.7352C57.9667 27.7473 57.9577 27.7575 57.9464 27.7646C57.9352 27.7718 57.922 27.7755 57.9087 27.7754H56.5195C56.506 27.7754 56.4927 27.7714 56.4814 27.764C56.4701 27.7566 56.4612 27.746 56.4558 27.7337L48.2949 9.39503C48.2903 9.38447 48.2883 9.37293 48.2893 9.36145C48.2903 9.34996 48.2941 9.3389 48.3004 9.32924C48.3067 9.31958 48.3153 9.31164 48.3255 9.30612C48.3356 9.30059 48.347 9.29767 48.3586 9.29761H52.7887C52.8028 9.29763 52.8167 9.30193 52.8283 9.30993C52.84 9.31794 52.8489 9.32928 52.8539 9.34246L57.1706 20.2631C57.1758 20.2758 57.1846 20.2867 57.196 20.2944C57.2074 20.3022 57.2208 20.3064 57.2346 20.3065C57.2483 20.3067 57.2619 20.3028 57.2734 20.2954C57.285 20.2879 57.2941 20.2772 57.2996 20.2646Z" fill="#011428" fill-opacity="0.5"/>
</svg>
